<svg width="24" height="23" viewBox="0 0 24 23" fill="none" xmlns="http://www.w3.org/2000/svg">
<path d="M10.8062 8.81189C8.95123 8.81189 7.44507 10.3321 7.44507 12.2046C7.44507 14.0768 8.95123 15.597 10.8062 15.597C12.6611 15.597 14.1673 14.0768 14.1673 12.2046C14.1673 10.3321 12.6553 8.81189 10.8062 8.81189Z" fill="#1C1C1C" fill-opacity="0.8"/>
<path d="M18.4347 5.48749C19.1081 5.48749 19.6529 4.93762 19.6529 4.25761C19.6529 3.57795 19.1081 3.02808 18.4347 3.02808C17.7613 3.02808 17.2162 3.57795 17.2162 4.25761C17.2162 4.93134 17.7672 5.48749 18.4347 5.48749Z" fill="#1C1C1C" fill-opacity="0.8"/>
<path d="M13.5305 15.1828L15.3858 17.0554C15.5144 16.8698 15.6676 16.7155 15.8511 16.5858L13.9775 14.6947C13.843 14.8678 13.6899 15.0286 13.5305 15.1828Z" fill="#1C1C1C" fill-opacity="0.8"/>
<path d="M16.9224 16.9071C16.249 16.9071 15.7042 17.457 15.7042 18.1366C15.7042 18.8163 16.249 19.3665 16.9224 19.3665C17.5958 19.3665 18.141 18.8163 18.141 18.1366C18.1347 17.457 17.5899 16.9071 16.9224 16.9071Z" fill="#1C1C1C" fill-opacity="0.8"/>
<path d="M7.85512 14.9543L4.24304 18.6004C4.4266 18.7302 4.57974 18.8844 4.70834 19.07L8.33874 15.4055C8.16762 15.2694 8.00204 15.1211 7.85512 14.9543Z" fill="#1C1C1C" fill-opacity="0.8"/>
<path d="M4.38987 20.1513C4.38987 20.2319 4.38192 20.3121 4.36636 20.3913C4.35081 20.4705 4.32765 20.5473 4.29723 20.622C4.26646 20.6966 4.22878 20.7674 4.18453 20.8344C4.13994 20.9018 4.08947 20.9639 4.03312 21.0208C3.97643 21.078 3.9149 21.1289 3.84818 21.1739C3.78181 21.2186 3.71163 21.2566 3.63766 21.2873C3.56368 21.3184 3.48763 21.3417 3.40916 21.3574C3.33069 21.3731 3.25152 21.3812 3.17132 21.3812C3.09147 21.3812 3.01231 21.3731 2.93384 21.3574C2.85537 21.3417 2.77897 21.3184 2.70534 21.2873C2.63136 21.2566 2.56119 21.2186 2.49447 21.1739C2.4281 21.1289 2.36657 21.078 2.30987 21.0208C2.25318 20.9639 2.20271 20.9018 2.15846 20.8344C2.11387 20.7674 2.07654 20.6966 2.04577 20.622C2.01535 20.5473 1.99219 20.4705 1.97663 20.3913C1.96073 20.3121 1.95312 20.2319 1.95312 20.1513C1.95312 20.0707 1.96073 19.9904 1.97663 19.9112C1.99219 19.832 2.01535 19.7553 2.04577 19.6806C2.07654 19.606 2.11387 19.5351 2.15846 19.4681C2.20271 19.4011 2.25318 19.3387 2.30987 19.2818C2.36657 19.2246 2.4281 19.1737 2.49447 19.129C2.56119 19.084 2.63136 19.046 2.70534 19.0153C2.77897 18.9842 2.85537 18.9608 2.93384 18.9451C3.01231 18.9294 3.09147 18.9218 3.17132 18.9218C3.25152 18.9218 3.33069 18.9294 3.40916 18.9451C3.48763 18.9608 3.56368 18.9842 3.63766 19.0153C3.71163 19.046 3.78181 19.084 3.84818 19.129C3.9149 19.1737 3.97643 19.2246 4.03312 19.2818C4.08947 19.3387 4.13994 19.4011 4.18453 19.4681C4.22878 19.5351 4.26646 19.606 4.29723 19.6806C4.32765 19.7553 4.35081 19.832 4.36636 19.9112C4.38192 19.9904 4.38987 20.0707 4.38987 20.1513Z" fill="#1C1C1C" fill-opacity="0.8"/>
<path d="M7.62863 9.71414C7.76344 9.54108 7.91036 9.3743 8.0756 9.22602L6.2203 7.35974C6.0917 7.54536 5.93891 7.69957 5.755 7.82936L7.62863 9.71414Z" fill="#1C1C1C" fill-opacity="0.8"/>
<path d="M4.68376 7.50214C5.35715 7.50214 5.90196 6.95192 5.90196 6.27226C5.90196 5.5926 5.35715 5.04272 4.68376 5.04272C4.01036 5.04272 3.46521 5.5926 3.46521 6.27226C3.47143 6.95192 4.01623 7.50214 4.68376 7.50214Z" fill="#1C1C1C" fill-opacity="0.8"/>
<path d="M6.79593 12.5382C6.79005 12.4269 6.78383 12.3156 6.78383 12.2046C6.78383 12.0933 6.79005 11.982 6.79593 11.8707H3.40405C3.42237 11.9757 3.43482 12.087 3.43482 12.2046C3.43482 12.3156 3.42237 12.4269 3.40405 12.5382H6.79593Z" fill="#1C1C1C" fill-opacity="0.8"/>
<path d="M2.72822 11.8498C2.75103 11.9269 2.76659 12.0058 2.7742 12.0864C2.7818 12.1666 2.78146 12.2469 2.7735 12.3271C2.76555 12.4077 2.74965 12.4866 2.72649 12.5637C2.70298 12.6408 2.67222 12.7151 2.63454 12.7859C2.59651 12.8571 2.55226 12.9238 2.50145 12.9862C2.45029 13.0487 2.39394 13.1052 2.33206 13.1561C2.27018 13.2074 2.20381 13.2517 2.13329 13.2898C2.06243 13.3274 1.9888 13.3581 1.9124 13.3815C1.83566 13.4045 1.75753 13.4202 1.67802 13.4279C1.59817 13.4356 1.51866 13.4356 1.43915 13.4272C1.3593 13.4192 1.28152 13.4035 1.20478 13.3798C1.12838 13.356 1.0551 13.3253 0.984575 13.287C0.914055 13.2486 0.848029 13.2039 0.786151 13.1526C0.724619 13.1013 0.668272 13.0441 0.617802 12.9817C0.566986 12.9192 0.523084 12.8522 0.485404 12.7811C0.44807 12.7095 0.417649 12.6352 0.394488 12.5581C0.371673 12.4806 0.356117 12.4018 0.348512 12.3215C0.340907 12.2409 0.341252 12.1607 0.349203 12.0805C0.357154 12.0002 0.373056 11.9214 0.396217 11.8442C0.419723 11.7668 0.450489 11.6928 0.488169 11.6216C0.526195 11.5505 0.570443 11.4838 0.621259 11.4214C0.67242 11.3593 0.728767 11.3024 0.790645 11.2515C0.852523 11.2005 0.918895 11.1559 0.989761 11.1182C1.06028 11.0802 1.13391 11.0494 1.21031 11.0264C1.28705 11.003 1.36518 10.9877 1.44468 10.9797C1.52454 10.972 1.60405 10.9723 1.68355 10.9804C1.76341 10.9884 1.84119 11.0044 1.91793 11.0282C1.99433 11.0515 2.06761 11.0826 2.13813 11.1206C2.20865 11.159 2.27468 11.2037 2.33656 11.2553C2.39809 11.3066 2.45444 11.3635 2.50491 11.4259C2.55572 11.4887 2.59962 11.5554 2.6373 11.6269C2.67464 11.6981 2.70506 11.7724 2.72822 11.8498Z" fill="#1C1C1C" fill-opacity="0.8"/>
<path d="M9.47148 19.4838C8.79808 19.4838 8.25293 20.034 8.25293 20.7136C8.25293 21.3933 8.79808 21.9432 9.47148 21.9432C10.1449 21.9432 10.6897 21.3933 10.6897 20.7136C10.6838 20.034 10.1387 19.4838 9.47148 19.4838Z" fill="#1C1C1C" fill-opacity="0.8"/>
<path d="M20.8898 13.6937C20.2164 13.6937 19.6716 14.2436 19.6716 14.9236C19.6716 15.6033 20.2164 16.1531 20.8898 16.1531C21.5632 16.1531 22.1084 15.6033 22.1084 14.9236C22.1022 14.2436 21.5574 13.6937 20.8898 13.6937Z" fill="#1C1C1C" fill-opacity="0.8"/>
<path d="M13.7511 9.45454L17.3632 5.80886C17.1796 5.67906 17.0265 5.5245 16.8979 5.33923L13.2675 9.00341C13.4389 9.13948 13.6042 9.28776 13.7511 9.45454Z" fill="#1C1C1C" fill-opacity="0.8"/>
<path d="M18.747 8.00867C18.0736 8.00867 17.5288 8.55854 17.5288 9.2382C17.5288 9.91821 18.0736 10.4681 18.747 10.4681C19.4204 10.4681 19.9656 9.91821 19.9656 9.2382C19.9593 8.55854 19.4145 8.00867 18.747 8.00867Z" fill="#1C1C1C" fill-opacity="0.8"/>
<path d="M23.1306 9.96741C22.6532 9.96741 22.2612 10.3631 22.2612 10.8449C22.2612 11.3271 22.6532 11.7224 23.1306 11.7224C23.6084 11.7224 24 11.3271 24 10.8449C24 10.3631 23.6084 9.96741 23.1306 9.96741Z" fill="#1C1C1C" fill-opacity="0.8"/>
<path d="M13.7572 4.32575C14.4306 4.32575 14.9754 3.77588 14.9754 3.09621C14.9754 2.4162 14.4306 1.86633 13.7572 1.86633C13.0835 1.86633 12.5387 2.4162 12.5387 3.09621C12.5387 3.7696 13.0897 4.32575 13.7572 4.32575Z" fill="#1C1C1C" fill-opacity="0.8"/>
<path d="M8.69995 5.25861C8.69995 5.74079 9.09196 6.1361 9.56935 6.1361C10.0471 6.1361 10.4388 5.74079 10.4388 5.25861C10.4388 4.77678 10.0471 4.38147 9.56935 4.38147C9.09196 4.38147 8.69995 4.77678 8.69995 5.25861Z" fill="#1C1C1C" fill-opacity="0.8"/>
<path d="M9.12233 1.75498C9.60007 1.75498 9.99173 1.35967 9.99173 0.87749C9.99173 0.395656 9.60007 0 9.12233 0C8.64494 0 8.25293 0.395656 8.25293 0.87749C8.25293 1.36595 8.63872 1.75498 9.12233 1.75498Z" fill="#1C1C1C" fill-opacity="0.8"/>
<path d="M14.553 20.5405C13.8796 20.5405 13.3348 21.0904 13.3348 21.7701C13.3348 22.4501 13.8796 22.9999 14.553 22.9999C15.2264 22.9999 15.7716 22.4501 15.7716 21.7701C15.7716 21.0904 15.2264 20.5405 14.553 20.5405Z" fill="#1C1C1C" fill-opacity="0.8"/>
<path d="M1.08995 16.5055C1.08995 16.5415 1.08615 16.5774 1.07923 16.6127C1.07232 16.6482 1.06195 16.6824 1.04847 16.7159C1.03464 16.7491 1.0177 16.7808 0.997998 16.8108C0.977948 16.8408 0.955478 16.8687 0.930243 16.8942C0.905008 16.9197 0.877353 16.9427 0.847624 16.9626C0.817895 16.9828 0.786437 16.9996 0.753597 17.0135C0.720411 17.0272 0.686188 17.0376 0.651274 17.0449C0.616014 17.0519 0.580754 17.0554 0.544802 17.0554C0.509197 17.0554 0.473591 17.0519 0.438676 17.0449C0.403416 17.0376 0.369539 17.0272 0.336353 17.0135C0.303167 16.9996 0.272055 16.9828 0.242326 16.9626C0.212597 16.9427 0.184942 16.9197 0.159707 16.8942C0.134472 16.8687 0.111657 16.8408 0.0919527 16.8108C0.0719029 16.7808 0.0553099 16.7491 0.0414824 16.7159C0.0276549 16.6824 0.0172843 16.6482 0.0103706 16.6127C0.00345687 16.5774 0 16.5415 0 16.5055C0 16.4693 0.00345687 16.4337 0.0103706 16.3981C0.0172843 16.3628 0.0276549 16.3283 0.0414824 16.2948C0.0553099 16.2617 0.0719029 16.2299 0.0919527 16.1999C0.111657 16.1699 0.134472 16.142 0.159707 16.1165C0.184942 16.091 0.212597 16.068 0.242326 16.0481C0.272055 16.0279 0.303167 16.0111 0.336353 15.9972C0.369539 15.9836 0.403416 15.9731 0.438676 15.9661C0.473591 15.9588 0.509197 15.9553 0.544802 15.9553C0.580754 15.9553 0.616014 15.9588 0.651274 15.9661C0.686188 15.9731 0.720411 15.9836 0.753597 15.9972C0.786437 16.0111 0.817895 16.0279 0.847624 16.0481C0.877353 16.068 0.905008 16.091 0.930243 16.1165C0.955478 16.142 0.977948 16.1699 0.997998 16.1999C1.0177 16.2299 1.03464 16.2617 1.04847 16.2948C1.06195 16.3283 1.07232 16.3628 1.07923 16.3981C1.08615 16.4337 1.08995 16.4693 1.08995 16.5055Z" fill="#1C1C1C" fill-opacity="0.8"/>
<path d="M1.96521 9.18273C2.26527 9.18273 2.51036 8.93571 2.51036 8.63286C2.51036 8.33001 2.26527 8.08264 1.96521 8.08264C1.66516 8.08264 1.42041 8.33001 1.42041 8.63286C1.42041 8.93571 1.66516 9.18273 1.96521 9.18273Z" fill="#1C1C1C" fill-opacity="0.8"/>
</svg>
