<svg width="48" height="65" viewBox="0 0 48 65" fill="none" xmlns="http://www.w3.org/2000/svg">
<mask id="mask0_458_1116" style="mask-type:luminance" maskUnits="userSpaceOnUse" x="1" y="0" width="46" height="64">
<path d="M1.44482 0.918945H46.8307V63.5805H1.44482V0.918945Z" fill="white"/>
</mask>
<g mask="url(#mask0_458_1116)">
<path d="M46.791 22.9873C46.791 10.8059 36.6468 0.932129 24.1324 0.932129C11.6172 0.932129 1.48706 10.8059 1.48706 22.9873C1.48706 24.6306 1.67977 26.2333 2.02462 27.7814C2.02462 27.7814 3.48594 41.0225 23.3741 63.5807C23.3741 63.5807 41.3327 44.7031 45.854 29.3026C45.95 28.9901 46.0467 28.6645 46.1294 28.3381C46.1294 28.3112 46.1434 28.2844 46.1567 28.2567C46.557 26.5727 46.791 24.8073 46.791 22.9873ZM24.1457 34.4092C17.4476 34.4092 12.0174 29.126 12.0174 22.6072C12.0174 16.0884 17.4476 10.8059 24.1457 10.7921C30.8445 10.7921 36.2747 16.0753 36.2747 22.5934C36.2747 29.1122 30.8445 34.4092 24.1457 34.4092Z" fill="#36A817"/>
</g>
<mask id="mask1_458_1116" style="mask-type:luminance" maskUnits="userSpaceOnUse" x="23" y="0" width="24" height="64">
<path d="M23.2622 0.918945H46.8305V63.5352H23.2622V0.918945Z" fill="white"/>
</mask>
<g mask="url(#mask1_458_1116)">
<path d="M46.0605 28.2704C46.0605 28.2973 46.0465 28.3249 46.0465 28.338C45.9638 28.6644 45.867 28.9769 45.7711 29.3025C41.4565 44.0103 24.9038 61.8689 23.4011 63.4715V34.3953C23.6219 34.4091 23.8427 34.4091 24.0768 34.4091C30.7756 34.4091 36.2058 29.1259 36.2058 22.5933C36.2058 16.0752 30.7756 10.792 24.0768 10.792C23.856 10.792 23.636 10.792 23.4011 10.8058V0.932C23.6219 0.932 23.8427 0.918945 24.0768 0.918945C36.5912 0.918945 46.7354 10.792 46.7354 22.9741C46.7221 24.8071 46.4873 26.5726 46.0605 28.2704Z" fill="#27860D"/>
</g>
<path fill-rule="evenodd" clip-rule="evenodd" d="M18.29 17.2194C19.0228 16.376 19.9287 15.7003 20.9461 15.2384C20.7236 15.7839 20.5378 16.3436 20.39 16.9138C19.7211 16.9962 19.0242 17.0973 18.29 17.2194ZM22.056 16.7481C22.3251 15.8817 22.651 15.1653 23.0033 14.6364C23.7466 14.528 24.5016 14.5277 25.2449 14.6357C25.5887 15.1669 25.906 15.877 26.1697 16.7287C24.7995 16.6356 23.4244 16.6421 22.0552 16.7481M28.1794 18.4989C29.0996 18.6241 30.0679 18.7906 31.121 18.9998C31.2916 19.3627 31.4334 19.7394 31.5464 20.1299C31.607 20.3242 31.7412 20.487 31.9204 20.5834C32.0996 20.6798 32.3094 20.7022 32.5049 20.6457C32.7004 20.5892 32.8659 20.4584 32.9661 20.2813C33.0662 20.1042 33.093 19.8948 33.0406 19.6982C31.9237 15.8296 28.3576 13 24.1264 13C19.8953 13 16.3292 15.8296 15.2108 19.6982C15.1824 19.7964 15.1737 19.8992 15.1851 20.0007C15.1965 20.1022 15.2277 20.2005 15.2771 20.29C15.3264 20.3794 15.3929 20.4583 15.4728 20.522C15.5526 20.5858 15.6442 20.6332 15.7424 20.6615C15.8405 20.6898 15.9433 20.6986 16.0449 20.6872C16.1464 20.6758 16.2447 20.6446 16.3341 20.5952C16.4236 20.5458 16.5024 20.4793 16.5662 20.3995C16.6299 20.3197 16.6773 20.228 16.7057 20.1299C16.8182 19.741 16.9592 19.3659 17.1288 19.0044C20.9259 18.2951 23.5929 18.0657 26.5656 18.3192C26.5967 18.4769 26.626 18.6373 26.6534 18.8007C26.669 18.9027 26.7046 19.0005 26.7584 19.0886C26.8121 19.1767 26.8828 19.2532 26.9664 19.3137C27.0499 19.3742 27.1447 19.4175 27.2452 19.441C27.3456 19.4645 27.4498 19.4677 27.5515 19.4506C27.6532 19.4335 27.7505 19.3963 27.8378 19.3412C27.925 19.2861 28.0004 19.2142 28.0595 19.1297C28.1187 19.0451 28.1605 18.9497 28.1824 18.8489C28.2043 18.7481 28.206 18.6439 28.1872 18.5424L28.1794 18.4989ZM27.8318 16.8866C27.6839 16.323 27.5011 15.7691 27.2842 15.2283C28.3021 15.6868 29.2093 16.359 29.9442 17.1992C29.2428 17.0771 28.5385 16.9729 27.8318 16.8866ZM16.7453 24.5632C16.6804 24.3711 16.543 24.2118 16.3624 24.1195C16.1818 24.0272 15.9723 24.0091 15.7785 24.069C15.5848 24.129 15.4221 24.2623 15.3252 24.4405C15.2283 24.6187 15.2048 24.8277 15.2598 25.0229C16.4288 28.8076 19.9552 31.5578 24.1264 31.5578C28.2977 31.5578 31.8233 28.8076 32.9931 25.0229C33.054 24.8258 33.034 24.6126 32.9377 24.4302C32.8413 24.2478 32.6765 24.1111 32.4794 24.0503C32.2823 23.9894 32.0691 24.0094 31.8867 24.1057C31.7043 24.202 31.5676 24.3669 31.5068 24.564C31.4019 24.9021 31.274 25.2326 31.1241 25.5533C30.1514 25.7378 29.1742 25.8978 28.1934 26.0332C28.2686 25.5899 28.3296 25.1354 28.3762 24.6698C28.3865 24.5682 28.3767 24.4655 28.3474 24.3676C28.318 24.2698 28.2697 24.1787 28.2051 24.0995C28.1405 24.0204 28.061 23.9547 27.9711 23.9063C27.8811 23.8579 27.7825 23.8277 27.6809 23.8173C27.5793 23.807 27.4766 23.8168 27.3788 23.8462C27.2809 23.8755 27.1898 23.9239 27.1107 23.9885C27.0315 24.053 26.9658 24.1325 26.9174 24.2225C26.869 24.3124 26.8388 24.411 26.8284 24.5127C26.7678 25.1105 26.6848 25.6786 26.5796 26.2168C24.877 26.3723 23.3246 26.3786 21.6772 26.2378C21.5639 25.6504 21.4777 25.0582 21.419 24.4629C21.4102 24.3603 21.381 24.2604 21.3333 24.1692C21.2855 24.0779 21.2201 23.997 21.1409 23.9312C21.0616 23.8654 20.9701 23.816 20.8716 23.7859C20.7731 23.7558 20.6696 23.7455 20.5671 23.7557C20.4646 23.7659 20.3651 23.7964 20.2745 23.8453C20.1839 23.8943 20.1039 23.9607 20.0391 24.0408C19.9744 24.121 19.9262 24.2131 19.8974 24.312C19.8686 24.4109 19.8597 24.5145 19.8712 24.6169C19.92 25.1095 19.984 25.5896 20.0633 26.0573C19.0811 25.9206 18.1032 25.7541 17.1311 25.558C16.9802 25.2356 16.8508 24.9032 16.7453 24.5632ZM18.3079 27.3586C19.0394 28.1949 19.9417 28.8649 20.9539 29.3232C20.7383 28.7839 20.5564 28.2316 20.4094 27.6697C19.7064 27.5837 19.0057 27.48 18.3079 27.3586ZM22.9847 29.919C23.7417 30.0314 24.5112 30.0314 25.2682 29.919C25.6128 29.3668 25.9262 28.6536 26.186 27.8104C24.7767 27.9154 23.4482 27.9217 22.0731 27.8283C22.3313 28.6637 22.6424 29.3714 22.9847 29.919ZM27.299 29.3224C28.3191 28.8607 29.2275 28.1842 29.9621 27.3391C29.2232 27.4612 28.5232 27.5631 27.8497 27.6456C27.6926 28.2444 27.5082 28.8068 27.299 29.3224ZM21.8343 21.0142L21.0511 22.5231L21.0503 22.5247C20.9598 22.695 20.8247 22.8375 20.6595 22.9371C20.4943 23.0367 20.3052 23.0896 20.1123 23.0901H15.7778C15.5715 23.0901 15.3737 23.0082 15.2278 22.8623C15.0819 22.7164 15 22.5186 15 22.3123C15 22.1061 15.0819 21.9082 15.2278 21.7624C15.3737 21.6165 15.5715 21.5346 15.7778 21.5346H19.8113L20.9671 19.307C21.0617 19.1246 21.2077 18.974 21.3871 18.8738C21.5632 18.7756 21.7635 18.7295 21.9648 18.7406C22.1661 18.7518 22.3601 18.8198 22.5242 18.9368C22.6899 19.0558 22.8198 19.2214 22.8937 19.4174L24.2361 22.9734L25.4386 20.3679C25.5214 20.1884 25.6533 20.036 25.8189 19.9281C25.9846 19.8202 26.1773 19.7613 26.375 19.7581C26.5722 19.7536 26.7667 19.8043 26.9365 19.9045C27.1064 20.0047 27.2449 20.1504 27.3363 20.3251L27.9632 21.5346H32.4759C32.6822 21.5346 32.88 21.6165 33.0259 21.7624C33.1717 21.9082 33.2537 22.1061 33.2537 22.3123C33.2537 22.5186 33.1717 22.7164 33.0259 22.8623C32.88 23.0082 32.6822 23.0901 32.4759 23.0901H27.663C27.2811 23.0901 26.9101 22.8801 26.725 22.5247L26.7234 22.5231L26.424 21.9444L25.1539 24.6978C25.066 24.8922 24.9229 25.0517 24.7463 25.1606C24.5686 25.2694 24.3628 25.3238 24.1544 25.3169C23.9461 25.31 23.7444 25.2421 23.5742 25.1217C23.4021 24.9996 23.2711 24.8282 23.1986 24.6301L21.8343 21.0142Z" fill="#36A817"/>
</svg>
