<svg width="19" height="19" viewBox="0 0 19 19" fill="none" xmlns="http://www.w3.org/2000/svg">
<path fill-rule="evenodd" clip-rule="evenodd" d="M3.29 4.21944C4.0228 3.37599 4.92873 2.70033 5.94611 2.23844C5.72363 2.78388 5.53785 3.34357 5.39 3.91378C4.72111 3.99622 4.02422 4.09733 3.29 4.21944ZM7.056 3.74811C7.32511 2.88167 7.651 2.16533 8.00333 1.63644C8.74656 1.52795 9.50159 1.52769 10.2449 1.63567C10.5887 2.16689 10.906 2.877 11.1697 3.72867C9.79952 3.63562 8.42443 3.64212 7.05522 3.74811M13.1794 5.49889C14.0996 5.62411 15.0679 5.79056 16.121 5.99978C16.2916 6.36274 16.4334 6.73945 16.5464 7.12989C16.607 7.32415 16.7412 7.48696 16.9204 7.58339C17.0996 7.67982 17.3094 7.70219 17.5049 7.64572C17.7004 7.58924 17.8659 7.45841 17.9661 7.28128C18.0662 7.10415 18.093 6.89484 18.0406 6.69822C16.9237 2.82956 13.3576 0 9.12645 0C4.89533 0 1.32922 2.82956 0.210778 6.69822C0.182434 6.79638 0.173701 6.89916 0.185078 7.00069C0.196454 7.10222 0.227717 7.20051 0.277082 7.28996C0.326447 7.37941 0.392946 7.45826 0.472784 7.52201C0.552621 7.58576 0.644233 7.63316 0.742389 7.6615C0.840545 7.68984 0.943322 7.69858 1.04485 7.6872C1.14638 7.67582 1.24468 7.64456 1.33413 7.5952C1.42358 7.54583 1.50243 7.47933 1.56618 7.3995C1.62992 7.31966 1.67732 7.22805 1.70567 7.12989C1.81819 6.741 1.95922 6.36585 2.12878 6.00445C5.92589 5.29511 8.59289 5.06567 11.5656 5.31922C11.5967 5.47685 11.626 5.63733 11.6534 5.80067C11.669 5.90266 11.7046 6.00055 11.7584 6.08863C11.8121 6.17671 11.8828 6.25322 11.9664 6.31371C12.0499 6.3742 12.1447 6.41745 12.2452 6.44096C12.3456 6.46446 12.4498 6.46775 12.5515 6.45062C12.6532 6.43349 12.7505 6.39629 12.8378 6.34119C12.925 6.28609 13.0004 6.21418 13.0595 6.12966C13.1187 6.04514 13.1605 5.9497 13.1824 5.84888C13.2043 5.74807 13.206 5.6439 13.1872 5.54244L13.1794 5.49889ZM12.8318 3.88656C12.6839 3.32296 12.5011 2.76914 12.2842 2.22833C13.3021 2.68679 14.2093 3.35898 14.9442 4.19922C14.2428 4.07711 13.5385 3.97286 12.8318 3.88656ZM1.74533 11.5632C1.68044 11.3711 1.54304 11.2118 1.36243 11.1195C1.18182 11.0272 0.972299 11.0091 0.77853 11.069C0.584761 11.129 0.422079 11.2623 0.325172 11.4405C0.228265 11.6187 0.204799 11.8277 0.259778 12.0229C1.42878 15.8076 4.95522 18.5578 9.12645 18.5578C13.2977 18.5578 16.8233 15.8076 17.9931 12.0229C18.054 11.8258 18.034 11.6126 17.9377 11.4302C17.8413 11.2478 17.6765 11.1111 17.4794 11.0503C17.2823 10.9894 17.0691 11.0094 16.8867 11.1057C16.7043 11.202 16.5676 11.3669 16.5068 11.564C16.4019 11.9021 16.274 12.2326 16.1241 12.5533C15.1514 12.7378 14.1742 12.8978 13.1934 13.0332C13.2686 12.5899 13.3296 12.1354 13.3762 11.6698C13.3865 11.5682 13.3767 11.4655 13.3474 11.3676C13.318 11.2698 13.2697 11.1787 13.2051 11.0995C13.1405 11.0204 13.061 10.9547 12.9711 10.9063C12.8811 10.8579 12.7825 10.8277 12.6809 10.8173C12.5793 10.807 12.4766 10.8168 12.3788 10.8462C12.2809 10.8755 12.1898 10.9239 12.1107 10.9885C12.0315 11.053 11.9658 11.1325 11.9174 11.2225C11.869 11.3124 11.8388 11.411 11.8284 11.5127C11.7678 12.1105 11.6848 12.6786 11.5796 13.2168C9.877 13.3723 8.32456 13.3786 6.67722 13.2378C6.56389 12.6504 6.47773 12.0582 6.419 11.4629C6.41016 11.3603 6.38101 11.2604 6.33327 11.1692C6.28552 11.0779 6.22013 10.997 6.14087 10.9312C6.06162 10.8654 5.97008 10.816 5.87159 10.7859C5.77309 10.7558 5.66959 10.7455 5.56709 10.7557C5.46459 10.7659 5.36514 10.7964 5.27451 10.8453C5.18388 10.8943 5.10387 10.9607 5.03914 11.0408C4.9744 11.121 4.92622 11.2131 4.89739 11.312C4.86857 11.4109 4.85967 11.5145 4.87122 11.6169C4.91996 12.1095 4.984 12.5896 5.06333 13.0573C4.0811 12.9206 3.10324 12.7541 2.13111 12.558C1.98016 12.2356 1.85075 11.9032 1.74533 11.5632ZM3.30789 14.3586C4.03942 15.1949 4.94168 15.8649 5.95389 16.3232C5.73828 15.7839 5.55645 15.2316 5.40945 14.6697C4.70642 14.5837 4.00567 14.48 3.30789 14.3586ZM7.98467 16.919C8.74171 17.0314 9.51118 17.0314 10.2682 16.919C10.6128 16.3668 10.9262 15.6536 11.186 14.8104C9.77667 14.9154 8.44822 14.9217 7.07311 14.8283C7.33133 15.6637 7.64245 16.3714 7.98467 16.919ZM12.299 16.3224C13.3191 15.8607 14.2275 15.1842 14.9621 14.3391C14.2232 14.4612 13.5232 14.5631 12.8497 14.6456C12.6926 15.2444 12.5082 15.8068 12.299 16.3224ZM6.83433 8.01422L6.05111 9.52311L6.05033 9.52467C5.9598 9.69499 5.82474 9.83755 5.65954 9.93713C5.49435 10.0367 5.30522 10.0896 5.11233 10.0901H0.777778C0.571498 10.0901 0.373667 10.0082 0.227806 9.86231C0.0819442 9.71644 0 9.51861 0 9.31234C0 9.10606 0.0819442 8.90822 0.227806 8.76236C0.373667 8.6165 0.571498 8.53456 0.777778 8.53456H4.81133L5.96711 6.307C6.06171 6.12461 6.20774 5.97398 6.38711 5.87378C6.5632 5.77564 6.76351 5.72947 6.96479 5.74062C7.16607 5.75177 7.36005 5.81979 7.52422 5.93678C7.68989 6.05578 7.81978 6.22145 7.89367 6.41745L9.23611 9.97344L10.4386 7.36789C10.5214 7.1884 10.6533 7.03595 10.8189 6.92808C10.9846 6.8202 11.1773 6.76129 11.375 6.75811C11.5722 6.75361 11.7667 6.80431 11.9365 6.90451C12.1064 7.0047 12.2449 7.15038 12.3363 7.32511L12.9632 8.53456H17.4759C17.6822 8.53456 17.88 8.6165 18.0259 8.76236C18.1717 8.90822 18.2537 9.10606 18.2537 9.31234C18.2537 9.51861 18.1717 9.71644 18.0259 9.86231C17.88 10.0082 17.6822 10.0901 17.4759 10.0901H12.663C12.2811 10.0901 11.9101 9.88011 11.725 9.52467L11.7234 9.52311L11.424 8.94445L10.1539 11.6978C10.066 11.8922 9.92289 12.0517 9.74633 12.1606C9.56858 12.2694 9.36279 12.3238 9.15445 12.3169C8.94611 12.31 8.74437 12.2421 8.57422 12.1217C8.40213 11.9996 8.27114 11.8282 8.19856 11.6301L6.83433 8.01422Z" fill="#1C1C1C" fill-opacity="0.9"/>
</svg>
