<svg width="16" height="18" viewBox="0 0 16 18" fill="none" xmlns="http://www.w3.org/2000/svg">
<mask id="mask0_356_1005" style="mask-type:luminance" maskUnits="userSpaceOnUse" x="0" y="0" width="16" height="18">
<path d="M0 0H16V17.5516H0V0Z" fill="white"/>
</mask>
<g mask="url(#mask0_356_1005)">
<path d="M6.06495 7.78848C6.44863 8.26846 6.76379 8.8581 6.76379 9.4613V15.385C6.76379 16.002 6.9831 16.2489 7.49 16.6192L8.7371 17.3732C8.9017 17.4967 9.06606 17.5516 9.20307 17.5516C9.4771 17.5516 9.65525 17.3185 9.65525 16.907V9.4613C9.64169 9.06361 9.83341 8.32318 10.2447 7.77469L15.74 0.863879C16.1372 0.383897 15.9591 0 15.3287 0H0.665486C0.0487153 0 -0.143011 0.397687 0.254231 0.877446L6.06495 7.78848Z" fill="#1C1C1C" fill-opacity="0.8"/>
</g>
</svg>
