<svg width="19" height="19" viewBox="0 0 19 19" fill="none" xmlns="http://www.w3.org/2000/svg">
<path d="M0.034412 10.0122C0.142819 11.5069 0.60396 12.9018 1.33614 14.1202C1.35329 14.1573 1.37658 14.1879 1.39812 14.2221C3.04416 16.8836 5.98087 18.6667 9.33333 18.6667C12.6859 18.6667 15.6227 16.8835 17.2687 14.2219C17.2902 14.1878 17.3133 14.1573 17.3304 14.1204C18.0627 12.902 18.5239 11.507 18.6323 10.0122C18.6371 9.98002 18.6357 9.94834 18.6372 9.91553C18.6492 9.72195 18.6667 9.52987 18.6667 9.33333C18.6667 4.18724 14.4794 0 9.33333 0C4.18724 0 0 4.18724 0 9.33333C0 9.52987 0.0174907 9.72195 0.029512 9.91553C0.0309867 9.94834 0.029568 9.98001 0.034412 10.0122ZM16.0139 12.648C15.8292 12.5635 15.6625 12.4484 15.4611 12.3038C14.937 11.9283 14.2853 11.4616 13.0575 11.4616C11.8234 11.4616 11.1699 11.9319 10.6458 12.3092C10.2311 12.6082 9.95677 12.8051 9.32421 12.8051C8.69166 12.8051 8.41731 12.6082 8.0026 12.3092C7.47851 11.9319 6.82499 11.4616 5.59088 11.4616C4.3668 11.4616 3.71693 11.9292 3.19466 12.3056C2.99699 12.4479 2.83293 12.5621 2.65183 12.6462C2.38329 12.1068 2.17491 11.5333 2.04281 10.93C3.16173 10.8862 3.78164 10.4481 4.28021 10.0889C4.70677 9.78086 4.96472 9.59492 5.59089 9.59492C6.22344 9.59492 6.49779 9.79179 6.91251 10.0908C7.43659 10.4681 8.09011 10.9384 9.32422 10.9384C10.5583 10.9384 11.2119 10.4681 11.7359 10.0908C12.1507 9.79179 12.425 9.59492 13.0576 9.59492C13.6892 9.59492 13.9635 9.7918 14.3792 10.0898C14.8795 10.4491 15.5012 10.8864 16.6239 10.93C16.4916 11.5339 16.2829 12.1082 16.0139 12.648ZM9.33333 16.8C7.07845 16.8 5.05831 15.791 3.68805 14.2057C3.91073 14.0792 4.11154 13.9458 4.28568 13.8204C4.71133 13.5133 4.96927 13.3283 5.59089 13.3283C6.22344 13.3283 6.49779 13.5251 6.91251 13.8241C7.43659 14.2014 8.09011 14.6717 9.32422 14.6717C10.5583 14.6717 11.2119 14.2014 11.7359 13.8241C12.1507 13.5251 12.425 13.3283 13.0576 13.3283C13.6856 13.3283 13.959 13.5242 14.3737 13.8214C14.5493 13.9473 14.7518 14.0812 14.9766 14.2079C13.6064 15.7919 11.5872 16.8 9.33333 16.8ZM9.33333 1.86667C13.3617 1.86667 16.6466 5.07574 16.7867 9.07061C16.1585 9.06742 15.8825 8.87157 15.4684 8.57409C14.9434 8.19675 14.2898 7.72826 13.0575 7.72826C11.8234 7.72826 11.1699 8.19858 10.6458 8.57591C10.2311 8.87487 9.95677 9.07175 9.32421 9.07175C8.69166 9.07175 8.41731 8.87487 8.0026 8.57591C7.47851 8.19857 6.82499 7.72826 5.59088 7.72826C4.36133 7.72826 3.71054 8.19766 3.18736 8.57501C2.77686 8.87158 2.50183 9.06743 1.87999 9.07062C2.02008 5.07579 5.30497 1.86667 9.33333 1.86667Z" fill="#F5F5F5"/>
</svg>
