<?xml version="1.0" encoding="UTF-8" standalone="no"?><!DOCTYPE svg PUBLIC "-//W3C//DTD SVG 1.1//EN" "http://www.w3.org/Graphics/SVG/1.1/DTD/svg11.dtd"><svg width="100%" height="100%" viewBox="0 0 49 49" version="1.1" xmlns="http://www.w3.org/2000/svg" xmlns:xlink="http://www.w3.org/1999/xlink" xml:space="preserve" xmlns:serif="http://www.serif.com/" style="fill-rule:evenodd;clip-rule:evenodd;stroke-linecap:round;stroke-linejoin:round;"><rect id="Flood" x="0.034" y="0.177" width="48" height="48" style="fill:none;"/><path d="M35.296,30.598l-11.326,17.579l-11.326,-17.579c3.223,2.225 7.124,3.528 11.326,3.528c4.201,-0 8.103,-1.303 11.326,-3.528Z" style="fill:#053062;"/><path d="M28.431,31.074c-0.75,0.172 -1.516,0.301 -2.295,0.385c0.383,-0.547 0.732,-1.118 1.044,-1.711c0.391,0.464 0.809,0.907 1.251,1.326Z" style="fill:#ebebeb;"/><path d="M4.062,9.09c-0.005,0.018 -0.007,0.035 -0.006,0.053c0.002,-0.018 0.004,-0.035 0.006,-0.053c-0,-0 -0,-0 -0,-0Z" style="fill:#4c2424;"/><path d="M31.104,15.063c1.069,-0.487 2.193,-0.921 3.319,-1.062c2.061,-0.258 5.675,2.531 7.329,2.703c1.973,0.205 0.528,0.22 1.439,0.444c-1.32,4.482 -4.149,8.314 -7.895,10.9c-2.047,1.413 -4.368,2.455 -6.865,3.026c-0.993,0.227 -0.968,0.253 -2.295,0.385c-0.712,0.077 -1.434,0.117 -2.166,0.117c-4.202,-0 -8.103,-1.303 -11.326,-3.528c-3.746,-2.586 -6.576,-6.418 -7.896,-10.9c-0.205,-0.697 3.054,-1.96 5.725,-2.066c1.215,-0.048 2.469,-1.99 5.831,-0.388c0.081,0.039 0.165,0.059 0.252,0.067l-0,-2.198l7.273,-6.743l7.275,6.742l-0,2.501Zm4.302,-4.26c0.402,0.378 0.402,0.998 0,1.378c-0.205,0.191 -0.469,0.285 -0.735,0.285c-0.267,-0 -0.531,-0.096 -0.734,-0.286l-9.967,-9.331l-9.964,9.331c-0.405,0.381 -1.067,0.381 -1.472,0.001c-0.402,-0.377 -0.403,-0.996 0,-1.377l10.701,-10.342c0.406,-0.38 1.064,-0.38 1.472,-0l3.688,3.466l0,-2.375l1.421,-0.03l-0,3.912l5.59,5.368Z" style="fill:url(#_Linear1);"/><path d="M42.079,16.976c-2.846,-0.412 -4.637,-1.5 -5.847,-2.624c-0.759,-0.704 -2.428,-0.661 -3.252,0.015c-1.884,1.545 -4.698,2.781 -9.15,2.781c-4.493,0 -7.316,-1.572 -9.201,-3.052c-0.787,-0.619 -2.294,-0.61 -2.983,0.051c-1.257,1.204 -2.794,2.328 -5.813,2.764" style="fill:none;fill-rule:nonzero;stroke:#2691c3;stroke-width:2.23px;"/><path d="M23.97,23.309c-3.775,-0 -6.147,-2.075 -7.731,-4.027c-0.661,-0.816 -1.928,-0.805 -2.507,0.067c-1.055,1.589 -2.285,3.054 -4.821,3.63m30.118,-0c-2.391,-0.543 -3.621,-1.876 -4.639,-3.359c-0.637,-0.929 -2.039,-0.872 -2.732,0.02c-0.618,0.795 -1.354,1.528 -2.245,2.127" style="fill:none;fill-rule:nonzero;stroke:#2691c3;stroke-width:2.29px;"/><path d="M4.062,9.09c-0,-0 -0,-0.001 -0,-0.002c-0,0.001 -0,0.001 -0,0.002c-0,-0 -0,-0 -0,0Z"/><path d="M43.942,9.747l0.069,-0.002c-0.021,0.024 -0.042,0.048 -0.063,0.072c-0.002,-0.023 -0.004,-0.046 -0.006,-0.07Z"/><defs><linearGradient id="_Linear1" x1="0" y1="0" x2="1" y2="0" gradientUnits="userSpaceOnUse" gradientTransform="matrix(1.92262e-15,31.3988,-31.3988,1.92262e-15,23.9699,0.177157)"><stop offset="0" style="stop-color:#2691c3;stop-opacity:1"/><stop offset="0.45" style="stop-color:#1c74a6;stop-opacity:1"/><stop offset="1" style="stop-color:#042e60;stop-opacity:1"/></linearGradient></defs></svg>