<svg width="48" height="65" viewBox="0 0 48 65" fill="none" xmlns="http://www.w3.org/2000/svg">
<mask id="mask0_458_1131" style="mask-type:luminance" maskUnits="userSpaceOnUse" x="1" y="0" width="46" height="64">
<path d="M1.44482 0.918945H46.8307V63.5805H1.44482V0.918945Z" fill="white"/>
</mask>
<g mask="url(#mask0_458_1131)">
<path d="M46.791 22.9873C46.791 10.8059 36.6468 0.932129 24.1324 0.932129C11.6172 0.932129 1.48706 10.8059 1.48706 22.9873C1.48706 24.6306 1.67977 26.2333 2.02462 27.7814C2.02462 27.7814 3.48594 41.0225 23.3741 63.5807C23.3741 63.5807 41.3327 44.7031 45.854 29.3026C45.95 28.9901 46.0467 28.6645 46.1294 28.3381C46.1294 28.3112 46.1434 28.2844 46.1567 28.2567C46.557 26.5727 46.791 24.8073 46.791 22.9873ZM24.1457 34.4092C17.4476 34.4092 12.0174 29.126 12.0174 22.6072C12.0174 16.0884 17.4476 10.8059 24.1457 10.7921C30.8445 10.7921 36.2747 16.0753 36.2747 22.5934C36.2747 29.1122 30.8445 34.4092 24.1457 34.4092Z" fill="#1883D0"/>
</g>
<mask id="mask1_458_1131" style="mask-type:luminance" maskUnits="userSpaceOnUse" x="23" y="0" width="24" height="64">
<path d="M23.2622 0.918945H46.8305V63.5352H23.2622V0.918945Z" fill="white"/>
</mask>
<g mask="url(#mask1_458_1131)">
<path d="M46.0605 28.2704C46.0605 28.2973 46.0465 28.3249 46.0465 28.338C45.9638 28.6644 45.867 28.9769 45.7711 29.3025C41.4565 44.0103 24.9038 61.8689 23.4011 63.4715V34.3953C23.6219 34.4091 23.8427 34.4091 24.0768 34.4091C30.7756 34.4091 36.2058 29.1259 36.2058 22.5933C36.2058 16.0752 30.7756 10.792 24.0768 10.792C23.856 10.792 23.636 10.792 23.4011 10.8058V0.932C23.6219 0.932 23.8427 0.918945 24.0768 0.918945C36.5912 0.918945 46.7354 10.792 46.7354 22.9741C46.7221 24.8071 46.4873 26.5726 46.0605 28.2704Z" fill="#1974B6"/>
</g>
<path d="M15.0344 23.0122C15.1428 24.5069 15.604 25.9018 16.3361 27.1202C16.3533 27.1573 16.3766 27.1879 16.3981 27.2221C18.0442 29.8836 20.9809 31.6667 24.3333 31.6667C27.6859 31.6667 30.6227 29.8835 32.2687 27.2219C32.2902 27.1878 32.3133 27.1573 32.3304 27.1204C33.0627 25.902 33.5239 24.507 33.6323 23.0122C33.6371 22.98 33.6357 22.9483 33.6372 22.9155C33.6492 22.722 33.6667 22.5299 33.6667 22.3333C33.6667 17.1872 29.4794 13 24.3333 13C19.1872 13 15 17.1872 15 22.3333C15 22.5299 15.0175 22.722 15.0295 22.9155C15.031 22.9483 15.0296 22.98 15.0344 23.0122ZM31.0139 25.648C30.8292 25.5635 30.6625 25.4484 30.4611 25.3038C29.937 24.9283 29.2853 24.4616 28.0575 24.4616C26.8234 24.4616 26.1699 24.9319 25.6458 25.3092C25.2311 25.6082 24.9568 25.8051 24.3242 25.8051C23.6917 25.8051 23.4173 25.6082 23.0026 25.3092C22.4785 24.9319 21.825 24.4616 20.5909 24.4616C19.3668 24.4616 18.7169 24.9292 18.1947 25.3056C17.997 25.4479 17.8329 25.5621 17.6518 25.6462C17.3833 25.1068 17.1749 24.5333 17.0428 23.93C18.1617 23.8862 18.7816 23.4481 19.2802 23.0889C19.7068 22.7809 19.9647 22.5949 20.5909 22.5949C21.2234 22.5949 21.4978 22.7918 21.9125 23.0908C22.4366 23.4681 23.0901 23.9384 24.3242 23.9384C25.5583 23.9384 26.2119 23.4681 26.7359 23.0908C27.1507 22.7918 27.425 22.5949 28.0576 22.5949C28.6892 22.5949 28.9635 22.7918 29.3792 23.0898C29.8795 23.4491 30.5012 23.8864 31.6239 23.93C31.4916 24.5339 31.2829 25.1082 31.0139 25.648ZM24.3333 29.8C22.0784 29.8 20.0583 28.791 18.688 27.2057C18.9107 27.0792 19.1115 26.9458 19.2857 26.8204C19.7113 26.5133 19.9693 26.3283 20.5909 26.3283C21.2234 26.3283 21.4978 26.5251 21.9125 26.8241C22.4366 27.2014 23.0901 27.6717 24.3242 27.6717C25.5583 27.6717 26.2119 27.2014 26.7359 26.8241C27.1507 26.5251 27.425 26.3283 28.0576 26.3283C28.6856 26.3283 28.959 26.5242 29.3737 26.8214C29.5493 26.9473 29.7518 27.0812 29.9766 27.2079C28.6064 28.7919 26.5872 29.8 24.3333 29.8ZM24.3333 14.8667C28.3617 14.8667 31.6466 18.0757 31.7867 22.0706C31.1585 22.0674 30.8825 21.8716 30.4684 21.5741C29.9434 21.1967 29.2898 20.7283 28.0575 20.7283C26.8234 20.7283 26.1699 21.1986 25.6458 21.5759C25.2311 21.8749 24.9568 22.0717 24.3242 22.0717C23.6917 22.0717 23.4173 21.8749 23.0026 21.5759C22.4785 21.1986 21.825 20.7283 20.5909 20.7283C19.3613 20.7283 18.7105 21.1977 18.1874 21.575C17.7769 21.8716 17.5018 22.0674 16.88 22.0706C17.0201 18.0758 20.305 14.8667 24.3333 14.8667Z" fill="#1883D0"/>
</svg>
