<svg width="20" height="20" viewBox="0 0 20 20" fill="none" xmlns="http://www.w3.org/2000/svg">
<g clip-path="url(#clip0_356_900)">
<path d="M10.7449 18.3971C11.4008 18.6405 12.0424 18.9447 12.6746 19.28C13.9319 19.9454 15.6924 20.5675 16.7178 19.1111C17.5873 17.876 17.5497 16.0285 17.6352 14.5849C17.7685 12.3329 19.8793 11.0217 19.9603 8.83026C19.9911 7.9982 19.8151 7.14123 19.3448 6.45716C18.6009 5.37548 17.3252 4.9348 16.2442 4.29381C15.0295 3.57287 14.1163 2.51561 12.8649 1.82007C10.029 0.244647 6.67616 -0.230421 3.47821 0.0635384C2.42032 0.160694 1.34632 0.604623 0.721352 1.46981C0.0554946 2.39603 0.0089068 3.64386 0.220286 4.76838C0.431666 5.89265 0.870036 6.96336 1.08935 8.08614C1.4784 10.0768 1.54184 11.873 2.8795 13.5344C3.48985 14.2924 4.25582 14.9396 4.7046 15.8038C4.97248 16.32 5.12117 16.9044 5.47652 17.3633C6.03706 18.0865 6.7101 17.8476 7.4788 17.8182C8.59517 17.7758 9.70188 18.011 10.7449 18.3971Z" fill="#1C1C1C" fill-opacity="0.8"/>
<path d="M2.1346 2.77306C1.5753 3.54134 1.52152 4.57368 1.67962 5.50962C1.71803 5.73607 1.7671 5.96002 1.82236 6.18274C1.99459 6.88002 2.22455 7.56459 2.35614 8.27334C2.66441 9.92873 2.72487 11.4282 3.81622 12.817C4.31505 13.4532 4.942 13.9991 5.31694 14.7175C5.54095 15.1468 5.67056 15.6298 5.96718 16.0119C5.99841 16.0523 6.03037 16.0894 6.06234 16.1238C6.53218 16.623 7.08231 16.486 7.70134 16.491C8.6767 16.499 9.65059 16.7015 10.5769 17.0017C11.1573 17.1905 11.7272 17.421 12.2902 17.6726C13.0874 18.0276 14.0888 18.3566 14.9343 18.0859C15.2785 17.975 15.5994 17.7645 15.8601 17.4018C16.5969 16.3687 16.5743 14.8286 16.6291 13.6055C16.721 11.7286 18.3674 10.5994 18.3801 8.77954C18.3836 8.08774 18.22 7.37701 17.8203 6.80852C17.1817 5.90372 16.1174 5.52008 15.2104 5.00291C14.1681 4.40877 13.364 3.62379 12.2934 3.071C9.91004 1.83936 7.10784 1.35408 4.44069 1.59797C3.55825 1.67868 2.66391 2.04787 2.1346 2.77306Z" fill="#434243"/>
<path d="M3.54611 4.07709C3.0951 4.68743 3.03414 5.50379 3.13897 6.24965C3.16424 6.43026 3.19844 6.60913 3.23734 6.787C3.35852 7.34427 3.52604 7.89258 3.62318 8.45933C3.85067 9.77965 3.90841 10.9836 4.75318 12.0992C5.1405 12.6139 5.62744 13.059 5.92952 13.632C6.10943 13.9741 6.2202 14.3555 6.4571 14.6609C6.48436 14.6955 6.51162 14.7279 6.53937 14.7578C6.94057 15.191 7.40546 15.1277 7.92362 15.1646C8.75873 15.2239 9.60004 15.393 10.4089 15.6063C10.9139 15.7411 11.412 15.8975 11.9051 16.0652C12.6052 16.3013 13.4579 16.5091 14.1904 16.2707C14.491 16.1728 14.7772 15.9991 15.0017 15.6927C15.6084 14.8637 15.5937 13.6263 15.6222 12.6253C15.6651 11.1236 16.8576 10.1762 16.7986 8.72788C16.776 8.17533 16.6249 7.61083 16.295 7.15868C15.763 6.42951 14.9083 6.10466 14.1746 5.71106C13.3052 5.24446 12.6116 4.73302 11.7205 4.32172C9.79234 3.43212 7.53853 2.93837 5.40243 3.13293C4.69495 3.19745 3.98151 3.49216 3.54611 4.07709Z" fill="#6A6A6A"/>
<path d="M4.95767 5.3805C4.61372 5.83116 4.54681 6.43328 4.59835 6.98906C4.61099 7.12383 4.62982 7.25736 4.65213 7.39089C4.72226 7.80766 4.82757 8.21995 4.89101 8.6447C5.03796 9.62946 5.09421 10.5363 5.69069 11.38C5.96773 11.7719 6.31392 12.1174 6.5424 12.5449C6.67869 12.7997 6.77038 13.081 6.94781 13.3082C6.97061 13.3373 6.99366 13.3647 7.01695 13.3906C7.34951 13.7569 7.72939 13.7696 8.14645 13.8371C8.8418 13.9494 9.54979 14.0834 10.2417 14.21C10.6711 14.29 11.0976 14.3722 11.5206 14.4569C12.123 14.5745 12.8275 14.6602 13.447 14.4546C13.7043 14.3689 13.9548 14.2327 14.1439 13.9826C14.6189 13.3558 14.6167 12.4243 14.616 11.6448C14.615 10.5183 15.3462 9.75203 15.2181 8.67559C15.1691 8.2623 15.03 7.84478 14.7706 7.50847C14.3446 6.95543 13.6993 6.69012 13.1403 6.41908C12.4419 6.08053 11.8618 5.83963 11.1489 5.57183C9.67988 5.02028 7.97051 4.52204 6.36497 4.66703C5.83194 4.71611 5.29766 4.93508 4.95767 5.3805Z" fill="#898989"/>
<path d="M6.36913 6.68459C6.13346 6.97706 6.05961 7.36344 6.05664 7.73089C6.05664 7.81982 6.06011 7.90851 6.06606 7.99695C6.0844 8.27421 6.12776 8.54999 6.15601 8.83249C6.22193 9.48169 6.2757 10.093 6.62561 10.6628C6.79089 10.9331 6.99781 11.1779 7.15269 11.4579C7.24463 11.6259 7.31798 11.8047 7.43593 11.9559C7.45427 11.9794 7.47261 12.0018 7.49095 12.0234C7.75536 12.3231 8.04975 12.4136 8.36595 12.5095C8.92129 12.6784 9.49645 12.774 10.0711 12.8139C10.425 12.8396 10.7796 12.8483 11.1325 12.8485C11.6378 12.8475 12.1938 12.8117 12.7006 12.6385C12.914 12.5645 13.1286 12.4651 13.2829 12.2723C13.6239 11.8471 13.6378 11.2225 13.6063 10.6638C13.5642 9.91316 13.8306 9.32749 13.6341 8.62323C13.5578 8.3492 13.4319 8.07866 13.2428 7.85794C12.9219 7.48177 12.4855 7.27749 12.1034 7.12653C11.5751 6.91826 11.1126 6.94168 10.5744 6.82186C9.57327 6.59964 8.4004 6.10738 7.32566 6.2028C6.96882 6.23468 6.61545 6.37867 6.36913 6.68459Z" fill="#B1B1B1"/>
<path d="M7.92665 10.6057C7.94052 10.6234 7.9549 10.6411 7.96976 10.6585C9.0896 11.9918 10.6057 11.3069 11.9577 10.8249C12.1275 10.7641 12.3044 10.6989 12.4256 10.5648C13.1209 9.7943 11.9 7.99094 11.0686 7.83723C10.707 7.77022 10.367 8.02756 10.0025 8.07489C9.29008 8.16731 8.39376 7.33202 7.78044 7.98894C7.62407 8.15685 7.53462 8.37807 7.48183 8.60202C7.31902 9.29084 7.48927 10.0511 7.92665 10.6057Z" fill="#DCDCDC"/>
</g>
<defs>
<clipPath id="clip0_356_900">
<rect width="20" height="20" fill="white"/>
</clipPath>
</defs>
</svg>
