<svg width="44" height="60" viewBox="0 0 44 60" fill="none" xmlns="http://www.w3.org/2000/svg">
<mask id="mask0_458_1101" style="mask-type:luminance" maskUnits="userSpaceOnUse" x="1" y="0" width="42" height="59">
<path d="M1.32422 0.848145H42.9279V58.6896H1.32422V0.848145Z" fill="white"/>
</mask>
<g mask="url(#mask0_458_1101)">
<path d="M42.8914 21.219C42.8914 9.97464 33.5926 0.860352 22.121 0.860352C10.6487 0.860352 1.36279 9.97464 1.36279 21.219C1.36279 22.7359 1.53944 24.2153 1.85556 25.6443C1.85556 25.6443 3.1951 37.8668 21.4259 58.6898C21.4259 58.6898 37.888 41.2643 42.0325 27.0485C42.1204 26.76 42.2091 26.4595 42.2849 26.1582C42.2849 26.1334 42.2978 26.1086 42.31 26.0831C42.6769 24.5286 42.8914 22.8989 42.8914 21.219ZM22.1332 31.7623C15.9933 31.7623 11.0156 26.8855 11.0156 20.8681C11.0156 14.8508 15.9933 9.97464 22.1332 9.96188C28.2738 9.96188 33.2514 14.8387 33.2514 20.8554C33.2514 26.8727 28.2738 31.7623 22.1332 31.7623Z" fill="#C38811"/>
</g>
<mask id="mask1_458_1101" style="mask-type:luminance" maskUnits="userSpaceOnUse" x="21" y="0" width="22" height="59">
<path d="M21.3237 0.848145H42.928V58.6478H21.3237V0.848145Z" fill="white"/>
</mask>
<g mask="url(#mask1_458_1101)">
<path d="M42.222 26.0957C42.222 26.1205 42.2092 26.146 42.2092 26.158C42.1333 26.4593 42.0447 26.7478 41.9567 27.0483C38.0017 40.6248 22.8284 57.1096 21.4509 58.589V31.7494C21.6533 31.7621 21.8557 31.7621 22.0703 31.7621C28.2109 31.7621 33.1885 26.8853 33.1885 20.8552C33.1885 14.8385 28.2109 9.96172 22.0703 9.96172C21.8679 9.96172 21.6662 9.96172 21.4509 9.97448V0.860195C21.6533 0.860195 21.8557 0.848145 22.0703 0.848145C33.5418 0.848145 42.8407 9.96172 42.8407 21.2068C42.8285 22.8988 42.6132 24.5284 42.222 26.0957Z" fill="#AC760B"/>
</g>
<path d="M12.8333 24L18.0833 17.2308L22.0208 22.3077H28.5833L24.2083 16.6808L22.0208 19.4731L20.927 18.077L24.2083 13.8462L32.0833 24H12.8333ZM16.3333 22.3077H19.8333L18.0833 20.0443L16.3333 22.3077Z" fill="#C38811"/>
</svg>
