<svg width="15" height="17" viewBox="0 0 15 17" fill="none" xmlns="http://www.w3.org/2000/svg">
<path d="M2.55108e-05 16.4641V0.000110149H3.28803L9.91203 8.88011C10.008 8.99211 10.128 9.15211 10.272 9.36011C10.416 9.55211 10.552 9.74411 10.68 9.93611C10.808 10.1281 10.896 10.2801 10.944 10.3921H11.064C11.064 10.1201 11.064 9.85611 11.064 9.60011C11.064 9.32811 11.064 9.08811 11.064 8.88011V0.000110149H14.448V16.4641H11.16L4.39203 7.36811C4.23203 7.14411 4.06403 6.89611 3.88803 6.62411C3.71203 6.35211 3.58403 6.14411 3.50403 6.00011H3.38403C3.38403 6.24011 3.38403 6.48011 3.38403 6.72011C3.38403 6.94411 3.38403 7.16011 3.38403 7.36811V16.4641H2.55108e-05Z" fill="#E53935"/>
</svg>
