<svg width="44" height="61" viewBox="0 0 44 61" fill="none" xmlns="http://www.w3.org/2000/svg">
<g clip-path="url(#clip0_458_1084)">
<mask id="mask0_458_1084" style="mask-type:luminance" maskUnits="userSpaceOnUse" x="1" y="0" width="42" height="60">
<path d="M1.32422 0.862305H42.9279V59.6678H1.32422V0.862305Z" fill="white"/>
</mask>
<g mask="url(#mask0_458_1084)">
<path d="M42.8914 21.5725C42.8914 10.1407 33.5926 0.874512 22.121 0.874512C10.6487 0.874512 1.36279 10.1407 1.36279 21.5725C1.36279 23.1147 1.53944 24.6187 1.85556 26.0715C1.85556 26.0715 3.1951 38.4978 21.4259 59.6678C21.4259 59.6678 37.888 41.9519 42.0325 27.4991C42.1204 27.2058 42.2091 26.9003 42.2849 26.594C42.2849 26.5688 42.2978 26.5435 42.31 26.5176C42.6769 24.9372 42.8914 23.2804 42.8914 21.5725ZM22.1332 32.2915C15.9933 32.2915 11.0156 27.3334 11.0156 21.2157C11.0156 15.0981 15.9933 10.1407 22.1332 10.1277C28.2738 10.1277 33.2514 15.0858 33.2514 21.2028C33.2514 27.3204 28.2738 32.2915 22.1332 32.2915Z" fill="#E93737"/>
</g>
<mask id="mask1_458_1084" style="mask-type:luminance" maskUnits="userSpaceOnUse" x="21" y="0" width="22" height="60">
<path d="M21.3237 0.862305H42.928V59.6253H21.3237V0.862305Z" fill="white"/>
</mask>
<g mask="url(#mask1_458_1084)">
<path d="M42.222 26.5306C42.222 26.5558 42.2092 26.5818 42.2092 26.594C42.1334 26.9003 42.0447 27.1936 41.9567 27.4992C38.0017 41.3019 22.8284 58.0615 21.4509 59.5655V32.2786C21.6533 32.2915 21.8557 32.2915 22.0703 32.2915C28.2109 32.2915 33.1885 27.3334 33.1885 21.2028C33.1885 15.0859 28.2109 10.1278 22.0703 10.1278C21.8679 10.1278 21.6662 10.1278 21.4509 10.1407V0.874556C21.6533 0.874556 21.8557 0.862305 22.0703 0.862305C33.5418 0.862305 42.8407 10.1278 42.8407 21.5603C42.8285 23.2805 42.6132 24.9372 42.222 26.5306Z" fill="#C82929"/>
</g>
<mask id="mask2_458_1084" style="mask-type:luminance" maskUnits="userSpaceOnUse" x="14" y="12" width="16" height="18">
<path d="M14.3208 12.8115H29.9748V29.2854H14.3208V12.8115Z" fill="white"/>
</mask>
<g mask="url(#mask2_458_1084)">
<path d="M22.1478 29.2852C21.529 29.2852 21.0547 29.1061 20.7247 28.7481C20.3945 28.3899 20.2296 27.8854 20.2298 27.2342V22.8718H16.1771C15.5787 22.8718 15.1197 22.709 14.8004 22.3836C14.4805 22.058 14.3206 21.5805 14.3208 20.9512C14.3208 20.3218 14.4807 19.8443 14.8004 19.5187C15.1199 19.1929 15.5789 19.0303 16.1771 19.0303H20.2298V14.8307C20.2298 14.1795 20.3948 13.6804 20.7247 13.3331C21.0542 12.9862 21.539 12.8127 22.1786 12.8123C22.7975 12.8123 23.2667 12.9858 23.5864 13.3331C23.9059 13.6804 24.0658 14.1795 24.0658 14.8307V19.0303H28.1185C28.7165 19.0303 29.1754 19.1931 29.4952 19.5187C29.8147 19.8441 29.9745 20.3216 29.9748 20.9512C29.9748 21.5807 29.8149 22.0582 29.4952 22.3836C29.1752 22.709 28.7162 22.8718 28.1185 22.8718H24.0658V27.2342C24.0658 27.8854 23.9059 28.3899 23.5864 28.7481C23.2662 29.1061 22.7868 29.2852 22.1478 29.2852Z" fill="#E53935"/>
</g>
</g>
<defs>
<clipPath id="clip0_458_1084">
<rect width="44" height="61" fill="white"/>
</clipPath>
</defs>
</svg>
