<svg width="20" height="16" viewBox="0 0 20 16" fill="none" xmlns="http://www.w3.org/2000/svg">
<mask id="mask0_356_1009" style="mask-type:luminance" maskUnits="userSpaceOnUse" x="0" y="0" width="20" height="6">
<path d="M0 0H20V5.34181H0V0Z" fill="white"/>
</mask>
<g mask="url(#mask0_356_1009)">
<path d="M19.3331 2.00025H7.23886C7.22074 1.92951 7.19971 1.8595 7.17602 1.79046C7.1521 1.72118 7.12551 1.65311 7.09603 1.58625C7.06654 1.51939 7.0344 1.45374 6.99959 1.38954C6.96479 1.3251 6.92733 1.2626 6.88721 1.20132C6.84733 1.14027 6.80479 1.08068 6.75984 1.02302C6.71489 0.965366 6.66752 0.909649 6.61797 0.85587C6.56843 0.802091 6.5167 0.750492 6.46305 0.701073C6.40915 0.651655 6.35332 0.604416 6.29556 0.559601C6.2378 0.514785 6.17834 0.472391 6.1172 0.43242C6.05605 0.392449 5.99321 0.354901 5.92892 0.320259C5.86464 0.285376 5.7989 0.253399 5.73195 0.224087C5.665 0.194775 5.59685 0.168128 5.52773 0.144387C5.4586 0.120647 5.38851 0.0998137 5.3177 0.0818874C5.24689 0.063961 5.17535 0.049184 5.10332 0.0370715C5.03106 0.0249591 4.95855 0.015996 4.88581 0.00993974C4.81282 0.00388355 4.73983 0.000976562 4.66684 0.000976562C4.59361 0.000976562 4.52062 0.00388355 4.44787 0.00993974C4.37488 0.015996 4.30262 0.0249591 4.23035 0.0370715C4.15833 0.049184 4.08679 0.063961 4.01598 0.0818874C3.94492 0.0998137 3.87508 0.120647 3.80595 0.144387C3.73659 0.168128 3.66868 0.194775 3.60173 0.224087C3.53478 0.253399 3.46904 0.285376 3.40476 0.320259C3.34047 0.354901 3.27763 0.392449 3.21648 0.43242C3.15509 0.472391 3.09564 0.514785 3.03812 0.559601C2.98035 0.604416 2.92453 0.651655 2.87063 0.701073C2.81697 0.750492 2.76525 0.802091 2.71571 0.85587C2.66616 0.909649 2.61879 0.965366 2.57384 1.02302C2.52889 1.08068 2.48635 1.14027 2.44647 1.20132C2.40635 1.2626 2.36889 1.3251 2.33409 1.38954C2.29904 1.45374 2.2669 1.51939 2.23765 1.58625C2.20817 1.65311 2.18158 1.72118 2.15766 1.79046C2.13397 1.8595 2.11294 1.92951 2.09482 2.00025H0.666936C0.623191 2.00025 0.579688 2.00461 0.536909 2.01309C0.493889 2.02157 0.452319 2.03441 0.411716 2.05112C0.371354 2.06784 0.332926 2.08843 0.296673 2.11265C0.260179 2.13688 0.226584 2.16474 0.195649 2.1955C0.164471 2.22651 0.136919 2.26018 0.11275 2.29652C0.0883399 2.3331 0.0677966 2.37137 0.0511203 2.41183C0.0342022 2.45228 0.0216345 2.49395 0.0131756 2.53683C0.00447481 2.57995 0.000366211 2.62331 0.000366211 2.66692C0.000366211 2.71076 0.00447481 2.75413 0.0131756 2.797C0.0216345 2.83988 0.0342022 2.88155 0.0511203 2.922C0.0677966 2.96246 0.0883399 3.00098 0.11275 3.03731C0.136919 3.07365 0.164471 3.10732 0.195649 3.13833C0.226584 3.16934 0.260179 3.19695 0.296673 3.22118C0.332926 3.24565 0.371354 3.26624 0.411716 3.28295C0.452319 3.29967 0.493889 3.31226 0.536909 3.32074C0.579688 3.32946 0.623191 3.33358 0.666936 3.33358H2.09482C2.11294 3.40456 2.13397 3.47457 2.15766 3.54361C2.18158 3.61265 2.20817 3.68072 2.23765 3.74758C2.2669 3.81469 2.29904 3.88009 2.33409 3.94453C2.36889 4.00873 2.40635 4.07147 2.44647 4.13252C2.48635 4.19381 2.52889 4.25316 2.57384 4.31081C2.61879 4.36847 2.66616 4.42418 2.71571 4.47796C2.76525 4.53174 2.81697 4.58334 2.87063 4.63276C2.92453 4.68242 2.98035 4.72942 3.03812 4.77447C3.09564 4.81929 3.15509 4.86168 3.21648 4.90165C3.27763 4.94163 3.34047 4.97893 3.40476 5.01381C3.46904 5.04846 3.53478 5.08043 3.60173 5.10999C3.66868 5.1393 3.73659 5.1657 3.80595 5.18945C3.87508 5.21319 3.94492 5.23402 4.01598 5.25195C4.08679 5.26987 4.15833 5.28489 4.23035 5.297C4.30262 5.30887 4.37488 5.31784 4.44787 5.32389C4.52062 5.32995 4.59361 5.3331 4.66684 5.3331C4.73983 5.3331 4.81282 5.32995 4.88581 5.32389C4.95855 5.31784 5.03106 5.30887 5.10332 5.297C5.17535 5.28489 5.24689 5.26987 5.3177 5.25195C5.38851 5.23402 5.4586 5.21319 5.52773 5.18945C5.59685 5.1657 5.665 5.1393 5.73195 5.10999C5.7989 5.08043 5.86464 5.04846 5.92892 5.01381C5.99321 4.97893 6.05605 4.94163 6.1172 4.90165C6.17834 4.86168 6.2378 4.81929 6.29556 4.77447C6.35332 4.72942 6.40915 4.68242 6.46305 4.63276C6.5167 4.58334 6.56843 4.53174 6.61797 4.47796C6.66752 4.42418 6.71489 4.36847 6.75984 4.31081C6.80479 4.25316 6.84733 4.19381 6.88721 4.13252C6.92733 4.07147 6.96479 4.00873 6.99959 3.94453C7.0344 3.88009 7.06654 3.81469 7.09603 3.74758C7.12551 3.68072 7.1521 3.61265 7.17602 3.54361C7.19971 3.47457 7.22074 3.40456 7.23886 3.33358H19.3331C19.3768 3.33358 19.4203 3.32946 19.4631 3.32074C19.5061 3.31226 19.5477 3.29967 19.5883 3.28295C19.6287 3.26624 19.6671 3.24565 19.7036 3.22118C19.7398 3.19695 19.7734 3.16934 19.8046 3.13833C19.8355 3.10732 19.8631 3.07365 19.8875 3.03731C19.9117 3.00098 19.9322 2.96246 19.9489 2.922C19.9658 2.88155 19.9784 2.83988 19.9868 2.797C19.9955 2.75413 19.9996 2.71076 19.9996 2.66692C19.9996 2.62331 19.9955 2.57995 19.9868 2.53683C19.9784 2.49395 19.9658 2.45228 19.9489 2.41183C19.9322 2.37137 19.9117 2.3331 19.8875 2.29652C19.8631 2.26018 19.8355 2.22651 19.8046 2.1955C19.7734 2.16474 19.7398 2.13688 19.7036 2.11265C19.6671 2.08843 19.6287 2.06784 19.5883 2.05112C19.5477 2.03441 19.5061 2.02157 19.4631 2.01309C19.4203 2.00461 19.3768 2.00025 19.3331 2.00025ZM4.66684 4.00025C4.62309 4.00025 4.57959 3.99807 4.53609 3.99395C4.49258 3.98959 4.44956 3.98329 4.40679 3.97457C4.36377 3.96609 4.32147 3.95568 4.2799 3.94284C4.23809 3.93024 4.197 3.91546 4.15664 3.89875C4.11628 3.88203 4.07688 3.86338 4.03821 3.84279C3.99979 3.8222 3.96232 3.79991 3.92607 3.77569C3.88982 3.75146 3.85477 3.7253 3.82094 3.69768C3.78734 3.67007 3.75496 3.64075 3.72402 3.60975C3.69309 3.57898 3.66384 3.54652 3.63605 3.51285C3.6085 3.47917 3.58239 3.44405 3.55823 3.40771C3.53406 3.37137 3.51158 3.33407 3.49104 3.29555C3.47049 3.25703 3.45164 3.21755 3.43497 3.17733C3.41829 3.13688 3.40355 3.0957 3.39098 3.05403C3.37817 3.01212 3.36778 2.96997 3.35908 2.92709C3.35062 2.88421 3.34433 2.84109 3.33998 2.79773C3.33563 2.75413 3.33346 2.71076 3.33346 2.66692C3.33346 2.62331 3.33563 2.57971 3.33998 2.53634C3.34433 2.49274 3.35062 2.44962 3.35908 2.40674C3.36778 2.36411 3.37817 2.32171 3.39098 2.28005C3.40355 2.23814 3.41829 2.1972 3.43497 2.15674C3.45164 2.11629 3.47049 2.07704 3.49104 2.03852C3.51158 2.00001 3.53406 1.96246 3.55823 1.92612C3.58239 1.89003 3.6085 1.8549 3.63605 1.82123C3.66384 1.78731 3.69309 1.75509 3.72402 1.72409C3.75496 1.69332 3.78734 1.66401 3.82094 1.63639C3.85477 1.60853 3.88982 1.58261 3.92607 1.55839C3.96232 1.53416 3.99979 1.51164 4.03821 1.49104C4.07688 1.47045 4.11628 1.4518 4.15664 1.43508C4.197 1.41837 4.23809 1.40383 4.2799 1.391C4.32147 1.3784 4.36377 1.36774 4.40679 1.35926C4.44956 1.35078 4.49258 1.34424 4.53609 1.34012C4.57959 1.33576 4.62309 1.33358 4.66684 1.33358C4.71058 1.33358 4.75409 1.33576 4.79759 1.34012C4.84085 1.34424 4.88412 1.35078 4.92689 1.35926C4.96967 1.36774 5.01197 1.3784 5.05378 1.391C5.09559 1.40383 5.13668 1.41837 5.17704 1.43508C5.2174 1.4518 5.2568 1.47045 5.29522 1.49104C5.33389 1.51164 5.37135 1.53416 5.40761 1.55839C5.44386 1.58261 5.4789 1.60853 5.51274 1.63639C5.54634 1.66401 5.57872 1.69332 5.60966 1.72409C5.64059 1.75509 5.66984 1.78731 5.69739 1.82123C5.72518 1.8549 5.75104 1.89003 5.77545 1.92612C5.79962 1.96246 5.8221 2.00001 5.84264 2.03852C5.86319 2.07704 5.8818 2.11629 5.89871 2.15674C5.91539 2.1972 5.93013 2.23814 5.9427 2.28005C5.95527 2.32171 5.9659 2.36411 5.9746 2.40674C5.98306 2.44962 5.98935 2.49274 5.9937 2.53634C5.99805 2.57971 6.00022 2.62331 6.00022 2.66692C6.00022 2.71076 5.99805 2.75413 5.9937 2.79773C5.98935 2.84109 5.98306 2.88421 5.9746 2.92709C5.9659 2.96997 5.95527 3.01212 5.9427 3.05403C5.93013 3.0957 5.91539 3.13688 5.89871 3.17733C5.8818 3.21755 5.86319 3.25703 5.84264 3.29555C5.8221 3.33407 5.79962 3.37137 5.77545 3.40771C5.75104 3.44405 5.72518 3.47917 5.69739 3.51285C5.66984 3.54652 5.64059 3.57898 5.60966 3.60975C5.57872 3.64075 5.54634 3.67007 5.51274 3.69768C5.4789 3.7253 5.44386 3.75146 5.40761 3.77569C5.37135 3.79991 5.33389 3.8222 5.29522 3.84279C5.2568 3.86338 5.2174 3.88203 5.17704 3.89875C5.13668 3.91546 5.09559 3.93024 5.05378 3.94284C5.01197 3.95568 4.96967 3.96609 4.92689 3.97457C4.88412 3.98329 4.84085 3.98959 4.79759 3.99395C4.75409 3.99807 4.71058 4.00025 4.66684 4.00025Z" fill="#1C1C1C" fill-opacity="0.8"/>
</g>
<mask id="mask1_356_1009" style="mask-type:luminance" maskUnits="userSpaceOnUse" x="0" y="10" width="20" height="6">
<path d="M0 10.613H20V15.9999H0V10.613Z" fill="white"/>
</mask>
<g mask="url(#mask1_356_1009)">
<path d="M19.3329 12.6665H10.5718C10.5539 12.5958 10.5329 12.5258 10.509 12.4565C10.4853 12.3874 10.4587 12.3194 10.4292 12.2525C10.3998 12.1856 10.3676 12.12 10.3328 12.0558C10.298 11.9914 10.2605 11.9289 10.2204 11.8676C10.1803 11.8065 10.1378 11.7469 10.0928 11.6893C10.0479 11.6316 10.0007 11.5759 9.95118 11.5221C9.90164 11.4684 9.84992 11.4168 9.79602 11.3673C9.74237 11.3179 9.68654 11.2707 9.62877 11.2259C9.57101 11.181 9.51156 11.1387 9.45041 11.0987C9.38902 11.0587 9.32642 11.0212 9.26189 10.9865C9.19761 10.9516 9.13211 10.9197 9.06516 10.8903C8.99821 10.861 8.93006 10.8344 8.86094 10.8106C8.79181 10.7869 8.72173 10.7661 8.65091 10.7481C8.5801 10.7302 8.50856 10.7154 8.43629 10.7033C8.36427 10.6912 8.29177 10.6823 8.21902 10.6762C8.14603 10.6701 8.07304 10.6672 8.00005 10.6672C7.92682 10.6672 7.85383 10.6701 7.78108 10.6762C7.70809 10.6823 7.63559 10.6912 7.56357 10.7033C7.4913 10.7154 7.42 10.7302 7.34895 10.7481C7.27813 10.7661 7.20805 10.7869 7.13892 10.8106C7.0698 10.8344 7.00165 10.861 6.9347 10.8903C6.86775 10.9197 6.80226 10.9516 6.73797 10.9865C6.67344 11.0212 6.61084 11.0587 6.54945 11.0987C6.48831 11.1387 6.42885 11.181 6.37109 11.2259C6.31332 11.2707 6.25774 11.3179 6.20384 11.3673C6.14994 11.4168 6.09822 11.4684 6.04868 11.5221C5.99913 11.5759 5.952 11.6316 5.90705 11.6893C5.8621 11.7469 5.81956 11.8065 5.77944 11.8676C5.73932 11.9289 5.7021 11.9914 5.66706 12.0558C5.63225 12.12 5.60011 12.1856 5.57062 12.2525C5.54114 12.3194 5.51455 12.3874 5.49087 12.4565C5.46694 12.5258 5.44616 12.5958 5.42803 12.6665H0.666814C0.623069 12.6665 0.579566 12.6709 0.536787 12.6793C0.493767 12.6878 0.452197 12.7007 0.411594 12.7174C0.371232 12.7341 0.332804 12.7547 0.296551 12.7789C0.260057 12.8031 0.226462 12.831 0.195526 12.8618C0.164349 12.8928 0.136797 12.9264 0.112628 12.9628C0.0882179 12.9994 0.0676745 13.0376 0.0509982 13.0781C0.0340802 13.1185 0.0215125 13.1602 0.0130535 13.2031C0.00435274 13.2462 0.000244141 13.2896 0.000244141 13.3332C0.000244141 13.377 0.00435274 13.4204 0.0130535 13.4633C0.0215125 13.5061 0.0340802 13.5478 0.0509982 13.5883C0.0676745 13.6287 0.0882179 13.6672 0.112628 13.7036C0.136797 13.7399 0.164349 13.7736 0.195526 13.8046C0.226462 13.8356 0.260057 13.8632 0.296551 13.8874C0.332804 13.9119 0.371232 13.9325 0.411594 13.9492C0.452197 13.9659 0.493767 13.9785 0.536787 13.987C0.579566 13.9957 0.623069 13.9998 0.666814 13.9998H5.42803C5.44616 14.0708 5.46694 14.1408 5.49087 14.2099C5.51455 14.2789 5.54114 14.347 5.57062 14.4138C5.60011 14.4809 5.63225 14.5464 5.66706 14.6108C5.7021 14.675 5.73932 14.7377 5.77944 14.7988C5.81956 14.8601 5.8621 14.9194 5.90705 14.9771C5.952 15.0347 5.99913 15.0904 6.04868 15.1442C6.09822 15.198 6.14994 15.2496 6.20384 15.299C6.25774 15.3487 6.31332 15.3957 6.37109 15.4407C6.42885 15.4855 6.48831 15.5279 6.54945 15.5679C6.61084 15.6079 6.67344 15.6452 6.73797 15.6801C6.80226 15.7147 6.86775 15.7467 6.9347 15.7762C7.00165 15.8056 7.0698 15.832 7.13892 15.8557C7.20805 15.8794 7.27813 15.9003 7.34895 15.9182C7.42 15.9361 7.4913 15.9512 7.56357 15.9633C7.63559 15.9751 7.70809 15.9841 7.78108 15.9902C7.85383 15.9962 7.92682 15.9994 8.00005 15.9994C8.07304 15.9994 8.14603 15.9962 8.21902 15.9902C8.29177 15.9841 8.36427 15.9751 8.43629 15.9633C8.50856 15.9512 8.5801 15.9361 8.65091 15.9182C8.72173 15.9003 8.79181 15.8794 8.86094 15.8557C8.93006 15.832 8.99821 15.8056 9.06516 15.7762C9.13211 15.7467 9.19761 15.7147 9.26214 15.6801C9.32642 15.6452 9.38902 15.6079 9.45041 15.5679C9.51156 15.5279 9.57101 15.4855 9.62877 15.4407C9.68654 15.3957 9.74237 15.3487 9.79602 15.299C9.84992 15.2496 9.90164 15.198 9.95118 15.1442C10.0007 15.0904 10.0479 15.0347 10.0928 14.9771C10.1378 14.9194 10.1803 14.8601 10.2204 14.7988C10.2605 14.7377 10.298 14.675 10.3328 14.6108C10.3676 14.5464 10.3998 14.4809 10.4292 14.4138C10.4587 14.347 10.4853 14.2789 10.509 14.2099C10.5329 14.1408 10.5539 14.0708 10.5718 13.9998H19.3329C19.3767 13.9998 19.4202 13.9957 19.463 13.987C19.506 13.9785 19.5476 13.9659 19.5882 13.9492C19.6285 13.9325 19.667 13.9119 19.7035 13.8874C19.7397 13.8632 19.7733 13.8356 19.8045 13.8046C19.8354 13.7736 19.863 13.7399 19.8874 13.7036C19.9115 13.6672 19.9321 13.6287 19.9488 13.5883C19.9657 13.5478 19.9783 13.5061 19.9867 13.4633C19.9954 13.4204 19.9995 13.377 19.9995 13.3332C19.9995 13.2896 19.9954 13.2462 19.9867 13.2031C19.9783 13.1602 19.9657 13.1185 19.9488 13.0781C19.9321 13.0376 19.9115 12.9994 19.8874 12.9628C19.863 12.9264 19.8354 12.8928 19.8045 12.8618C19.7733 12.831 19.7397 12.8031 19.7035 12.7789C19.667 12.7547 19.6285 12.7341 19.5882 12.7174C19.5476 12.7007 19.506 12.6878 19.463 12.6793C19.4202 12.6709 19.3767 12.6665 19.3329 12.6665ZM8.00005 14.6665C7.95631 14.6665 7.9128 14.6643 7.8693 14.6602C7.8258 14.6559 7.78278 14.6496 7.73976 14.6408C7.69698 14.6324 7.65468 14.6219 7.61287 14.6091C7.57106 14.5965 7.52997 14.5817 7.48961 14.565C7.44925 14.5483 7.40985 14.5296 7.37143 14.509C7.333 14.4885 7.29554 14.4662 7.25928 14.4419C7.22279 14.4177 7.18774 14.3916 7.15415 14.3639C7.12031 14.3363 7.08793 14.307 7.05723 14.276C7.0263 14.2452 6.99705 14.2128 6.96926 14.1791C6.94171 14.1454 6.91561 14.1103 6.89144 14.074C6.86703 14.0376 6.84455 14.0003 6.82401 13.9618C6.80346 13.9233 6.78485 13.8838 6.76818 13.8436C6.7515 13.8031 6.73676 13.762 6.72395 13.7203C6.71138 13.6784 6.70075 13.6362 6.69229 13.5934C6.68383 13.5505 6.6773 13.5074 6.67295 13.464C6.66884 13.4204 6.66667 13.377 6.66667 13.3332C6.66667 13.2896 6.66884 13.246 6.67295 13.2026C6.6773 13.159 6.68383 13.1159 6.69229 13.073C6.70075 13.0304 6.71138 12.988 6.72395 12.9463C6.73676 12.9044 6.7515 12.8632 6.76818 12.823C6.78485 12.7825 6.80346 12.7433 6.82401 12.7048C6.84455 12.6663 6.86703 12.6287 6.89144 12.5924C6.91561 12.5563 6.94171 12.5212 6.96926 12.4875C6.99705 12.4536 7.0263 12.4214 7.05723 12.3903C7.08793 12.3596 7.12031 12.3303 7.15415 12.3027C7.18774 12.2748 7.22279 12.2489 7.25928 12.2246C7.29554 12.2004 7.333 12.1779 7.37143 12.1573C7.40985 12.1367 7.44925 12.1181 7.48961 12.1013C7.52997 12.0846 7.57106 12.0701 7.61287 12.0573C7.65468 12.0447 7.69698 12.034 7.73976 12.0255C7.78278 12.017 7.8258 12.0105 7.8693 12.0064C7.9128 12.002 7.95631 11.9998 8.00005 11.9998C8.04355 11.9998 8.08706 12.002 8.13056 12.0064C8.17406 12.0105 8.21733 12.017 8.26011 12.0255C8.30288 12.034 8.34518 12.0447 8.38699 12.0573C8.4288 12.0701 8.46989 12.0846 8.51025 12.1013C8.55061 12.1181 8.59001 12.1367 8.62843 12.1573C8.66686 12.1779 8.70432 12.2004 8.74058 12.2246C8.77707 12.2489 8.81212 12.2748 8.84571 12.3027C8.87955 12.3303 8.91193 12.3596 8.94263 12.3903C8.97356 12.4214 9.00281 12.4536 9.0306 12.4875C9.05839 12.5212 9.08425 12.5563 9.10842 12.5924C9.13283 12.6287 9.15531 12.6663 9.17585 12.7048C9.1964 12.7433 9.21501 12.7825 9.23168 12.823C9.24836 12.8632 9.2631 12.9044 9.27591 12.9463C9.28848 12.988 9.29911 13.0304 9.30757 13.073C9.31603 13.1159 9.32256 13.159 9.32691 13.2026C9.33102 13.246 9.33319 13.2896 9.33319 13.3332C9.33319 13.377 9.33102 13.4204 9.32691 13.464C9.32256 13.5074 9.31603 13.5505 9.30757 13.5934C9.29911 13.6362 9.28848 13.6784 9.27591 13.7203C9.2631 13.762 9.24836 13.8031 9.23168 13.8436C9.21501 13.8838 9.1964 13.9233 9.17585 13.9618C9.15531 14.0003 9.13283 14.0376 9.10842 14.074C9.08425 14.1103 9.05839 14.1454 9.0306 14.1791C9.00281 14.2128 8.97356 14.2452 8.94263 14.276C8.91193 14.307 8.87955 14.3363 8.84571 14.3639C8.81212 14.3916 8.77707 14.4177 8.74058 14.4419C8.70432 14.4662 8.66686 14.4885 8.62843 14.509C8.59001 14.5296 8.55061 14.5483 8.51025 14.565C8.46989 14.5817 8.4288 14.5965 8.38699 14.6091C8.34518 14.6219 8.30288 14.6324 8.26011 14.6408C8.21733 14.6496 8.17406 14.6559 8.13056 14.6602C8.08706 14.6643 8.04355 14.6665 8.00005 14.6665Z" fill="#1C1C1C" fill-opacity="0.8"/>
</g>
<mask id="mask2_356_1009" style="mask-type:luminance" maskUnits="userSpaceOnUse" x="0" y="5" width="20" height="6">
<path d="M0 5.27979H20V10.6751H0V5.27979Z" fill="white"/>
</mask>
<g mask="url(#mask2_356_1009)">
<path d="M19.3329 7.33326H18.5716C18.5535 7.26252 18.5327 7.19251 18.5088 7.12347C18.4851 7.05419 18.4585 6.98612 18.429 6.91926C18.3996 6.8524 18.3674 6.78675 18.3326 6.72255C18.2976 6.65811 18.2603 6.59561 18.2202 6.53432C18.1801 6.47328 18.1376 6.41368 18.0926 6.35603C18.0477 6.29837 18.0005 6.24266 17.951 6.18888C17.9014 6.1351 17.8497 6.0835 17.7958 6.03408C17.7419 5.98466 17.6863 5.93742 17.6286 5.89261C17.5708 5.84779 17.5114 5.8054 17.4502 5.76543C17.3888 5.72546 17.3262 5.68791 17.2617 5.65327C17.1974 5.61838 17.1319 5.58641 17.065 5.55709C16.998 5.52778 16.9299 5.50114 16.8607 5.4774C16.7916 5.45365 16.7215 5.43282 16.6507 5.4149C16.5797 5.39697 16.5084 5.38219 16.4361 5.37008C16.3641 5.35797 16.2916 5.349 16.2186 5.34295C16.1458 5.33689 16.0728 5.33398 15.9996 5.33398C15.9266 5.33398 15.8536 5.33689 15.7806 5.34295C15.7079 5.349 15.6354 5.35797 15.5634 5.37008C15.4911 5.38219 15.4196 5.39697 15.3488 5.4149C15.2779 5.43282 15.2079 5.45365 15.1387 5.4774C15.0696 5.50114 15.0015 5.52778 14.9345 5.55709C14.8676 5.58641 14.8021 5.61838 14.7375 5.65327C14.6732 5.68791 14.6106 5.72546 14.5493 5.76543C14.4881 5.8054 14.4287 5.84779 14.3709 5.89261C14.3131 5.93742 14.2573 5.98466 14.2036 6.03408C14.1498 6.0835 14.098 6.1351 14.0485 6.18888C13.9989 6.24266 13.9518 6.29837 13.9069 6.35603C13.8619 6.41368 13.8194 6.47328 13.7792 6.53432C13.7391 6.59561 13.7017 6.65811 13.6669 6.72255C13.6321 6.78675 13.5999 6.8524 13.5704 6.91926C13.5409 6.98612 13.5144 7.05419 13.4907 7.12347C13.4667 7.19251 13.4457 7.26252 13.4278 7.33326H0.666814C0.623069 7.33326 0.579566 7.33762 0.536787 7.3461C0.493767 7.35458 0.452197 7.36741 0.411594 7.38413C0.371232 7.40084 0.332804 7.42144 0.296551 7.44566C0.260057 7.46989 0.226462 7.49774 0.195526 7.52851C0.164349 7.55952 0.136797 7.59319 0.112628 7.62953C0.0882179 7.66611 0.0676745 7.70438 0.0509982 7.74484C0.0340802 7.78529 0.0215125 7.82696 0.0130535 7.86984C0.00435274 7.91296 0.000244141 7.95632 0.000244141 7.99992C0.000244141 8.04377 0.00435274 8.08713 0.0130535 8.13001C0.0215125 8.17289 0.0340802 8.21456 0.0509982 8.25501C0.0676745 8.29547 0.0882179 8.33398 0.112628 8.37032C0.136797 8.40666 0.164349 8.44033 0.195526 8.47134C0.226462 8.50235 0.260057 8.52996 0.296551 8.55419C0.332804 8.57865 0.371232 8.59925 0.411594 8.61596C0.452197 8.63268 0.493767 8.64527 0.536787 8.65375C0.579566 8.66247 0.623069 8.66659 0.666814 8.66659H13.4278C13.4457 8.73757 13.4667 8.80758 13.4907 8.87662C13.5144 8.94566 13.5409 9.01373 13.5704 9.08059C13.5999 9.1477 13.6321 9.2131 13.6669 9.27754C13.7017 9.34174 13.7391 9.40448 13.7792 9.46552C13.8194 9.52681 13.8619 9.58616 13.9069 9.64382C13.9518 9.70147 13.9989 9.75719 14.0485 9.81097C14.098 9.86475 14.1498 9.91635 14.2036 9.96577C14.2573 10.0154 14.3131 10.0624 14.3709 10.1075C14.4287 10.1523 14.4881 10.1947 14.5493 10.2347C14.6106 10.2746 14.6732 10.3119 14.7375 10.3468C14.8021 10.3815 14.8676 10.4134 14.9345 10.443C15.0015 10.4723 15.0696 10.4987 15.1387 10.5225C15.2079 10.5462 15.2779 10.567 15.3488 10.585C15.4196 10.6029 15.4911 10.6179 15.5634 10.63C15.6354 10.6419 15.7079 10.6508 15.7806 10.6569C15.8536 10.663 15.9266 10.6661 15.9996 10.6661C16.0728 10.6661 16.1458 10.663 16.2186 10.6569C16.2916 10.6508 16.3641 10.6419 16.4361 10.63C16.5084 10.6179 16.5797 10.6029 16.6507 10.585C16.7215 10.567 16.7916 10.5462 16.8607 10.5225C16.9299 10.4987 16.998 10.4723 17.065 10.443C17.1319 10.4134 17.1974 10.3815 17.2617 10.3468C17.3262 10.3119 17.3888 10.2746 17.4502 10.2347C17.5114 10.1947 17.5708 10.1523 17.6286 10.1075C17.6863 10.0624 17.7419 10.0154 17.7958 9.96577C17.8497 9.91635 17.9014 9.86475 17.951 9.81097C18.0005 9.75719 18.0477 9.70147 18.0926 9.64382C18.1376 9.58616 18.1801 9.52681 18.2202 9.46552C18.2603 9.40448 18.2976 9.34174 18.3326 9.27754C18.3674 9.2131 18.3996 9.1477 18.429 9.08059C18.4585 9.01373 18.4851 8.94566 18.5088 8.87662C18.5327 8.80758 18.5535 8.73757 18.5716 8.66659H19.3329C19.3767 8.66659 19.4202 8.66247 19.463 8.65375C19.506 8.64527 19.5476 8.63268 19.5882 8.61596C19.6285 8.59925 19.667 8.57865 19.7035 8.55419C19.7397 8.52996 19.7733 8.50235 19.8045 8.47134C19.8354 8.44033 19.863 8.40666 19.8874 8.37032C19.9115 8.33398 19.9321 8.29547 19.9488 8.25501C19.9657 8.21456 19.9783 8.17289 19.9867 8.13001C19.9954 8.08713 19.9995 8.04377 19.9995 7.99992C19.9995 7.95632 19.9954 7.91296 19.9867 7.86984C19.9783 7.82696 19.9657 7.78529 19.9488 7.74484C19.9321 7.70438 19.9115 7.66611 19.8874 7.62953C19.863 7.59319 19.8354 7.55952 19.8045 7.52851C19.7733 7.49774 19.7397 7.46989 19.7035 7.44566C19.667 7.42144 19.6285 7.40084 19.5882 7.38413C19.5476 7.36741 19.506 7.35458 19.463 7.3461C19.4202 7.33762 19.3767 7.33326 19.3329 7.33326ZM15.9996 9.33326C15.9561 9.33326 15.9126 9.33108 15.8691 9.32696C15.8256 9.3226 15.7823 9.3163 15.7396 9.30758C15.6968 9.2991 15.6545 9.28868 15.6127 9.27584C15.5709 9.26325 15.5298 9.24847 15.4894 9.23176C15.4491 9.21504 15.4097 9.19639 15.3712 9.1758C15.3328 9.1552 15.2953 9.13292 15.2591 9.10869C15.2226 9.08447 15.1876 9.05831 15.154 9.03069C15.1201 9.00307 15.0877 8.97376 15.057 8.94275C15.0261 8.91199 14.9969 8.87953 14.9691 8.84585C14.9413 8.81218 14.9154 8.77706 14.8912 8.74072C14.8668 8.70438 14.8444 8.66708 14.8238 8.62856C14.8033 8.59004 14.7847 8.55055 14.768 8.51034C14.7513 8.46989 14.7366 8.4287 14.7238 8.38704C14.7112 8.34513 14.7006 8.30298 14.6921 8.2601C14.6836 8.21722 14.6771 8.1741 14.6728 8.13074C14.6687 8.08713 14.6665 8.04377 14.6665 7.99992C14.6665 7.95632 14.6687 7.91271 14.6728 7.86935C14.6771 7.82575 14.6836 7.78263 14.6921 7.73975C14.7006 7.69711 14.7112 7.65472 14.7238 7.61305C14.7366 7.57115 14.7513 7.53021 14.768 7.48975C14.7847 7.44929 14.8033 7.41005 14.8238 7.37153C14.8444 7.33302 14.8668 7.29547 14.8912 7.25913C14.9154 7.22303 14.9413 7.18791 14.9691 7.15424C14.9969 7.12032 15.0261 7.0881 15.057 7.05709C15.0877 7.02633 15.1201 6.99702 15.154 6.9694C15.1876 6.94154 15.2226 6.91562 15.2591 6.8914C15.2953 6.86717 15.3328 6.84464 15.3712 6.82405C15.4097 6.80346 15.4491 6.78481 15.4894 6.76809C15.5298 6.75138 15.5709 6.73684 15.6127 6.724C15.6545 6.71141 15.6968 6.70075 15.7396 6.69227C15.7823 6.68379 15.8256 6.67725 15.8691 6.67313C15.9126 6.66877 15.9561 6.66659 15.9996 6.66659C16.0434 6.66659 16.0869 6.66877 16.1304 6.67313C16.1739 6.67725 16.2169 6.68379 16.2599 6.69227C16.3027 6.70075 16.345 6.71141 16.3868 6.724C16.4286 6.73684 16.4697 6.75138 16.5101 6.76809C16.5502 6.78481 16.5898 6.80346 16.6282 6.82405C16.6667 6.84464 16.7041 6.86717 16.7404 6.8914C16.7769 6.91562 16.8119 6.94154 16.8455 6.9694C16.8794 6.99702 16.9117 7.02633 16.9424 7.05709C16.9734 7.0881 17.0026 7.12032 17.0304 7.15424C17.058 7.18791 17.0841 7.22303 17.1082 7.25913C17.1326 7.29547 17.1551 7.33302 17.1757 7.37153C17.1962 7.41005 17.2148 7.44929 17.2315 7.48975C17.2482 7.53021 17.2629 7.57115 17.2757 7.61305C17.2883 7.65472 17.2989 7.69711 17.3074 7.73975C17.3158 7.78263 17.3224 7.82575 17.3267 7.86935C17.3308 7.91271 17.333 7.95632 17.333 7.99992C17.333 8.04377 17.3308 8.08713 17.3267 8.13074C17.3224 8.1741 17.3158 8.21722 17.3074 8.2601C17.2989 8.30298 17.2883 8.34513 17.2757 8.38704C17.2629 8.4287 17.2482 8.46989 17.2315 8.51034C17.2148 8.55055 17.1962 8.59004 17.1757 8.62856C17.1551 8.66708 17.1326 8.70438 17.1082 8.74072C17.0841 8.77706 17.058 8.81218 17.0304 8.84585C17.0026 8.87953 16.9734 8.91199 16.9424 8.94275C16.9117 8.97376 16.8794 9.00307 16.8455 9.03069C16.8119 9.05831 16.7769 9.08447 16.7404 9.10869C16.7041 9.13292 16.6667 9.1552 16.6282 9.1758C16.5898 9.19639 16.5502 9.21504 16.5101 9.23176C16.4697 9.24847 16.4286 9.26325 16.3868 9.27584C16.345 9.28868 16.3027 9.2991 16.2599 9.30758C16.2169 9.3163 16.1739 9.3226 16.1304 9.32696C16.0869 9.33108 16.0434 9.33326 15.9996 9.33326Z" fill="#1C1C1C" fill-opacity="0.8"/>
</g>
</svg>
