<svg width="20" height="21" viewBox="0 0 20 21" fill="none" xmlns="http://www.w3.org/2000/svg">
<mask id="mask0_356_919" style="mask-type:luminance" maskUnits="userSpaceOnUse" x="0" y="0" width="20" height="21">
<path d="M0 0H20V20.8877H0V0Z" fill="white"/>
</mask>
<g mask="url(#mask0_356_919)">
<path d="M10 20.8874C9.20937 20.8874 8.60341 20.6603 8.18184 20.2063C7.76001 19.7521 7.54923 19.1125 7.5495 18.2867V12.7556H2.37163C1.6071 12.7556 1.02072 12.5491 0.612761 12.1366C0.203982 11.7237 -0.000271687 11.1183 2.71218e-07 10.3203C2.71218e-07 9.52233 0.204254 8.91691 0.612761 8.50405C1.021 8.09092 1.60738 7.88476 2.37163 7.88476H7.5495V2.56002C7.5495 1.73431 7.76028 1.10142 8.18184 0.661089C8.60286 0.221305 9.22215 0.00127641 10.0394 0.000732422C10.8301 0.000732422 11.4295 0.220761 11.838 0.661089C12.2462 1.10142 12.4505 1.73431 12.4505 2.56002V7.88476H17.6284C18.3924 7.88476 18.9787 8.09119 19.3872 8.50405C19.7955 8.91664 19.9997 9.52206 20 10.3203C20 11.1186 19.7957 11.724 19.3872 12.1366C18.9785 12.5491 18.3921 12.7556 17.6284 12.7556H12.4505V18.2867C12.4505 19.1125 12.2462 19.7521 11.838 20.2063C11.429 20.6603 10.8165 20.8874 10 20.8874Z" fill="#1C1C1C" fill-opacity="0.8"/>
</g>
</svg>
