<svg xmlns="http://www.w3.org/2000/svg" xmlns:xlink="http://www.w3.org/1999/xlink" width="500" zoomAndPan="magnify" viewBox="0 0 375 374.999991" height="500" preserveAspectRatio="xMidYMid meet" version="1.2"><defs><clipPath id="7c08af387e"><path d="M 33.707031 33.707031 L 341.207031 33.707031 L 341.207031 341.207031 L 33.707031 341.207031 Z M 33.707031 33.707031 "/></clipPath><clipPath id="c098d433ab"><path d="M 33.707031 33.707031 L 341.207031 33.707031 L 341.207031 341.207031 L 33.707031 341.207031 Z M 33.707031 33.707031 "/></clipPath></defs><g id="a658093ca0"><rect x="0" width="375" y="0" height="374.999991" style="fill:#ffffff;fill-opacity:1;stroke:none;"/><rect x="0" width="375" y="0" height="374.999991" style="fill:#e25656;fill-opacity:1;stroke:none;"/><g clip-rule="nonzero" clip-path="url(#7c08af387e)"><path style=" stroke:none;fill-rule:nonzero;fill:#000000;fill-opacity:1;" d="M 338.765625 323.929688 L 50.988281 323.929688 L 50.988281 36.148438 C 50.988281 34.800781 49.894531 33.707031 48.546875 33.707031 C 47.199219 33.707031 46.105469 34.800781 46.105469 36.148438 L 46.105469 58.289062 L 36.148438 58.289062 C 34.800781 58.289062 33.707031 59.382812 33.707031 60.730469 C 33.707031 62.078125 34.800781 63.171875 36.148438 63.171875 L 46.105469 63.171875 L 46.105469 97.277344 L 36.148438 97.277344 C 34.800781 97.277344 33.707031 98.367188 33.707031 99.714844 C 33.707031 101.0625 34.800781 102.15625 36.148438 102.15625 L 46.105469 102.15625 L 46.105469 136.269531 L 36.148438 136.269531 C 34.800781 136.269531 33.707031 137.363281 33.707031 138.710938 C 33.707031 140.058594 34.800781 141.148438 36.148438 141.148438 L 46.105469 141.148438 L 46.105469 175.253906 L 36.148438 175.253906 C 34.800781 175.253906 33.707031 176.347656 33.707031 177.695312 C 33.707031 179.042969 34.800781 180.136719 36.148438 180.136719 L 46.105469 180.136719 L 46.105469 214.242188 L 36.148438 214.242188 C 34.800781 214.242188 33.707031 215.335938 33.707031 216.683594 C 33.707031 218.03125 34.800781 219.121094 36.148438 219.121094 L 46.105469 219.121094 L 46.105469 253.230469 L 36.148438 253.230469 C 34.800781 253.230469 33.707031 254.320312 33.707031 255.667969 C 33.707031 257.015625 34.800781 258.109375 36.148438 258.109375 L 46.105469 258.109375 L 46.105469 292.222656 L 36.148438 292.222656 C 34.800781 292.222656 33.707031 293.3125 33.707031 294.660156 C 33.707031 296.007812 34.800781 297.101562 36.148438 297.101562 L 46.105469 297.101562 L 46.105469 326.371094 C 46.105469 327.71875 47.199219 328.808594 48.546875 328.808594 L 77.8125 328.808594 L 77.8125 338.765625 C 77.8125 340.113281 78.90625 341.207031 80.253906 341.207031 C 81.601562 341.207031 82.695312 340.113281 82.695312 338.765625 L 82.695312 328.808594 L 116.804688 328.808594 L 116.804688 338.765625 C 116.804688 340.113281 117.898438 341.207031 119.246094 341.207031 C 120.59375 341.207031 121.6875 340.113281 121.6875 338.765625 L 121.6875 328.808594 L 155.792969 328.808594 L 155.792969 338.765625 C 155.792969 340.113281 156.886719 341.207031 158.234375 341.207031 C 159.582031 341.207031 160.671875 340.113281 160.671875 338.765625 L 160.671875 328.808594 L 194.777344 328.808594 L 194.777344 338.765625 C 194.777344 340.113281 195.871094 341.207031 197.21875 341.207031 C 198.566406 341.207031 199.660156 340.113281 199.660156 338.765625 L 199.660156 328.808594 L 233.765625 328.808594 L 233.765625 338.765625 C 233.765625 340.113281 234.859375 341.207031 236.207031 341.207031 C 237.554688 341.207031 238.648438 340.113281 238.648438 338.765625 L 238.648438 328.808594 L 272.757812 328.808594 L 272.757812 338.765625 C 272.757812 340.113281 273.851562 341.207031 275.199219 341.207031 C 276.546875 341.207031 277.640625 340.113281 277.640625 338.765625 L 277.640625 328.808594 L 311.746094 328.808594 L 311.746094 338.765625 C 311.746094 340.113281 312.835938 341.207031 314.183594 341.207031 C 315.53125 341.207031 316.625 340.113281 316.625 338.765625 L 316.625 328.808594 L 338.765625 328.808594 C 340.113281 328.808594 341.207031 327.71875 341.207031 326.371094 C 341.207031 325.023438 340.113281 323.929688 338.765625 323.929688 Z M 338.765625 323.929688 "/></g><path style=" stroke:none;fill-rule:nonzero;fill:#000000;fill-opacity:1;" d="M 216.1875 285.441406 C 216.1875 291.113281 220.796875 295.722656 226.460938 295.722656 C 232.132812 295.722656 236.742188 291.113281 236.742188 285.441406 C 236.742188 279.773438 232.132812 275.164062 226.460938 275.164062 C 220.796875 275.164062 216.1875 279.773438 216.1875 285.441406 Z M 216.1875 285.441406 "/><path style=" stroke:none;fill-rule:nonzero;fill:#000000;fill-opacity:1;" d="M 240.445312 257.859375 C 240.445312 252.191406 235.835938 247.578125 230.167969 247.578125 C 224.5 247.578125 219.890625 252.191406 219.890625 257.859375 C 219.890625 263.527344 224.5 268.140625 230.167969 268.140625 C 235.835938 268.140625 240.445312 263.527344 240.445312 257.859375 Z M 230.167969 263.257812 C 227.191406 263.257812 224.773438 260.835938 224.773438 257.859375 C 224.773438 254.882812 227.191406 252.460938 230.167969 252.460938 C 233.144531 252.460938 235.566406 254.882812 235.566406 257.859375 C 235.566406 260.835938 233.144531 263.257812 230.167969 263.257812 Z M 230.167969 263.257812 "/><path style=" stroke:none;fill-rule:nonzero;fill:#000000;fill-opacity:1;" d="M 251.59375 264.257812 C 245.925781 264.257812 241.3125 268.871094 241.3125 274.539062 C 241.3125 280.207031 245.925781 284.816406 251.59375 284.816406 C 257.257812 284.816406 261.867188 280.207031 261.867188 274.539062 C 261.867188 268.871094 257.257812 264.257812 251.59375 264.257812 Z M 251.59375 264.257812 "/><path style=" stroke:none;fill-rule:nonzero;fill:#000000;fill-opacity:1;" d="M 249.152344 312.269531 C 254.820312 312.269531 259.433594 307.660156 259.433594 301.996094 C 259.433594 296.328125 254.820312 291.714844 249.152344 291.714844 C 243.488281 291.714844 238.878906 296.328125 238.878906 301.996094 C 238.878906 307.660156 243.488281 312.269531 249.152344 312.269531 Z M 249.152344 296.597656 C 252.128906 296.597656 254.550781 299.019531 254.550781 301.996094 C 254.550781 304.96875 252.128906 307.390625 249.152344 307.390625 C 246.179688 307.390625 243.757812 304.96875 243.757812 301.996094 C 243.757812 299.019531 246.179688 296.597656 249.152344 296.597656 Z M 249.152344 296.597656 "/><path style=" stroke:none;fill-rule:nonzero;fill:#000000;fill-opacity:1;" d="M 279.675781 289.945312 C 285.347656 289.945312 289.957031 285.335938 289.957031 279.671875 C 289.957031 274.003906 285.347656 269.390625 279.675781 269.390625 C 274.011719 269.390625 269.402344 274.003906 269.402344 279.671875 C 269.402344 285.335938 274.011719 289.945312 279.675781 289.945312 Z M 279.675781 289.945312 "/><path style=" stroke:none;fill-rule:nonzero;fill:#000000;fill-opacity:1;" d="M 284.058594 253.753906 C 284.058594 248.085938 279.445312 243.472656 273.777344 243.472656 C 268.109375 243.472656 263.496094 248.085938 263.496094 253.753906 C 263.496094 259.421875 268.109375 264.035156 273.777344 264.035156 C 279.445312 264.035156 284.058594 259.421875 284.058594 253.753906 Z M 268.378906 253.753906 C 268.378906 250.777344 270.800781 248.351562 273.777344 248.351562 C 276.753906 248.351562 279.175781 250.777344 279.175781 253.753906 C 279.175781 256.730469 276.753906 259.152344 273.777344 259.152344 C 270.800781 259.152344 268.378906 256.730469 268.378906 253.753906 Z M 268.378906 253.753906 "/><path style=" stroke:none;fill-rule:nonzero;fill:#000000;fill-opacity:1;" d="M 250.554688 250.5625 C 256.226562 250.5625 260.835938 245.949219 260.835938 240.28125 C 260.835938 234.617188 256.226562 230.007812 250.554688 230.007812 C 244.886719 230.007812 240.277344 234.617188 240.277344 240.28125 C 240.277344 245.949219 244.886719 250.5625 250.554688 250.5625 Z M 250.554688 250.5625 "/><path style=" stroke:none;fill-rule:nonzero;fill:#000000;fill-opacity:1;" d="M 224.253906 240.171875 C 229.921875 240.171875 234.535156 235.558594 234.535156 229.890625 C 234.535156 224.222656 229.921875 219.609375 224.253906 219.609375 C 218.589844 219.609375 213.980469 224.222656 213.980469 229.890625 C 213.980469 235.558594 218.589844 240.171875 224.253906 240.171875 Z M 224.253906 240.171875 "/><path style=" stroke:none;fill-rule:nonzero;fill:#000000;fill-opacity:1;" d="M 124.589844 231.3125 C 124.589844 236.980469 129.203125 241.59375 134.871094 241.59375 C 140.539062 241.59375 145.152344 236.980469 145.152344 231.3125 C 145.152344 225.644531 140.539062 221.03125 134.871094 221.03125 C 129.203125 221.03125 124.589844 225.644531 124.589844 231.3125 Z M 124.589844 231.3125 "/><path style=" stroke:none;fill-rule:nonzero;fill:#000000;fill-opacity:1;" d="M 164.015625 191.539062 C 169.683594 191.539062 174.292969 186.925781 174.292969 181.257812 C 174.292969 175.59375 169.683594 170.984375 164.015625 170.984375 C 158.347656 170.984375 153.738281 175.59375 153.738281 181.257812 C 153.738281 186.925781 158.347656 191.539062 164.015625 191.539062 Z M 164.015625 191.539062 "/><path style=" stroke:none;fill-rule:nonzero;fill:#000000;fill-opacity:1;" d="M 200.539062 128.105469 C 206.203125 128.105469 210.8125 123.492188 210.8125 117.824219 C 210.8125 112.15625 206.203125 107.542969 200.539062 107.542969 C 194.871094 107.542969 190.257812 112.15625 190.257812 117.824219 C 190.257812 123.492188 194.871094 128.105469 200.539062 128.105469 Z M 200.539062 128.105469 "/><path style=" stroke:none;fill-rule:nonzero;fill:#000000;fill-opacity:1;" d="M 229.496094 117.097656 C 235.164062 117.097656 239.777344 112.488281 239.777344 106.820312 C 239.777344 101.152344 235.164062 96.542969 229.496094 96.542969 C 223.828125 96.542969 219.21875 101.152344 219.21875 106.820312 C 219.21875 112.488281 223.828125 117.097656 229.496094 117.097656 Z M 229.496094 101.425781 C 232.472656 101.425781 234.894531 103.84375 234.894531 106.820312 C 234.894531 109.796875 232.472656 112.21875 229.496094 112.21875 C 226.519531 112.21875 224.101562 109.796875 224.101562 106.820312 C 224.101562 103.84375 226.519531 101.425781 229.496094 101.425781 Z M 229.496094 101.425781 "/><path style=" stroke:none;fill-rule:nonzero;fill:#000000;fill-opacity:1;" d="M 224.253906 150.324219 C 229.921875 150.324219 234.535156 145.714844 234.535156 140.050781 C 234.535156 134.382812 229.921875 129.769531 224.253906 129.769531 C 218.589844 129.769531 213.980469 134.382812 213.980469 140.050781 C 213.980469 145.714844 218.589844 150.324219 224.253906 150.324219 Z M 224.253906 150.324219 "/><path style=" stroke:none;fill-rule:nonzero;fill:#000000;fill-opacity:1;" d="M 250.554688 177.945312 C 256.226562 177.945312 260.835938 173.332031 260.835938 167.664062 C 260.835938 162 256.226562 157.390625 250.554688 157.390625 C 244.886719 157.390625 240.277344 162 240.277344 167.664062 C 240.277344 173.335938 244.886719 177.945312 250.554688 177.945312 Z M 250.554688 177.945312 "/><path style=" stroke:none;fill-rule:nonzero;fill:#000000;fill-opacity:1;" d="M 279.675781 140.773438 C 274.011719 140.773438 269.402344 145.382812 269.402344 151.050781 C 269.402344 156.71875 274.011719 161.328125 279.675781 161.328125 C 285.347656 161.328125 289.957031 156.71875 289.957031 151.050781 C 289.957031 145.382812 285.347656 140.773438 279.675781 140.773438 Z M 279.675781 140.773438 "/><path style=" stroke:none;fill-rule:nonzero;fill:#000000;fill-opacity:1;" d="M 254.21875 147.074219 C 259.886719 147.074219 264.496094 142.464844 264.496094 136.800781 C 264.496094 131.132812 259.886719 126.519531 254.21875 126.519531 C 248.550781 126.519531 243.941406 131.132812 243.941406 136.800781 C 243.941406 142.464844 248.550781 147.074219 254.21875 147.074219 Z M 254.21875 131.398438 C 257.195312 131.398438 259.617188 133.824219 259.617188 136.800781 C 259.617188 139.773438 257.195312 142.191406 254.21875 142.191406 C 251.242188 142.191406 248.824219 139.773438 248.824219 136.800781 C 248.824219 133.824219 251.242188 131.398438 254.21875 131.398438 Z M 254.21875 131.398438 "/><path style=" stroke:none;fill-rule:nonzero;fill:#000000;fill-opacity:1;" d="M 305.535156 150.925781 C 299.871094 150.925781 295.261719 155.535156 295.261719 161.203125 C 295.261719 166.871094 299.871094 171.480469 305.535156 171.480469 C 311.203125 171.480469 315.816406 166.871094 315.816406 161.203125 C 315.816406 155.535156 311.203125 150.925781 305.535156 150.925781 Z M 305.535156 150.925781 "/><path style=" stroke:none;fill-rule:nonzero;fill:#000000;fill-opacity:1;" d="M 276.445312 125.828125 C 282.113281 125.828125 286.726562 121.21875 286.726562 115.546875 C 286.726562 109.878906 282.113281 105.269531 276.445312 105.269531 C 270.773438 105.269531 266.164062 109.878906 266.164062 115.550781 C 266.164062 121.21875 270.773438 125.828125 276.445312 125.828125 Z M 276.445312 125.828125 "/><path style=" stroke:none;fill-rule:nonzero;fill:#000000;fill-opacity:1;" d="M 293.222656 133.5 C 293.222656 139.167969 297.835938 143.78125 303.503906 143.78125 C 309.167969 143.78125 313.777344 139.167969 313.777344 133.5 C 313.777344 127.832031 309.167969 123.222656 303.503906 123.222656 C 297.832031 123.222656 293.222656 127.832031 293.222656 133.5 Z M 303.503906 128.105469 C 306.476562 128.105469 308.894531 130.523438 308.894531 133.5 C 308.894531 136.476562 306.476562 138.898438 303.503906 138.898438 C 300.523438 138.898438 298.101562 136.476562 298.101562 133.5 C 298.101562 130.523438 300.523438 128.105469 303.503906 128.105469 Z M 303.503906 128.105469 "/><path style=" stroke:none;fill-rule:nonzero;fill:#000000;fill-opacity:1;" d="M 287.515625 98.421875 C 293.1875 98.421875 297.796875 93.8125 297.796875 88.148438 C 297.796875 82.480469 293.1875 77.867188 287.515625 77.867188 C 281.847656 77.867188 277.238281 82.480469 277.238281 88.148438 C 277.238281 93.8125 281.847656 98.421875 287.515625 98.421875 Z M 287.515625 98.421875 "/><path style=" stroke:none;fill-rule:nonzero;fill:#000000;fill-opacity:1;" d="M 255.945312 98.421875 C 261.613281 98.421875 266.222656 93.8125 266.222656 88.148438 C 266.222656 82.480469 261.613281 77.867188 255.945312 77.867188 C 250.277344 77.867188 245.667969 82.480469 245.667969 88.148438 C 245.667969 93.8125 250.277344 98.421875 255.945312 98.421875 Z M 255.945312 98.421875 "/><path style=" stroke:none;fill-rule:nonzero;fill:#000000;fill-opacity:1;" d="M 140.746094 161.328125 C 146.414062 161.328125 151.023438 156.71875 151.023438 151.050781 C 151.023438 145.382812 146.414062 140.773438 140.746094 140.773438 C 135.078125 140.773438 130.464844 145.382812 130.464844 151.050781 C 130.464844 156.71875 135.078125 161.328125 140.746094 161.328125 Z M 140.746094 161.328125 "/><path style=" stroke:none;fill-rule:nonzero;fill:#000000;fill-opacity:1;" d="M 119.832031 178.988281 C 119.832031 184.65625 124.441406 189.269531 130.105469 189.269531 C 135.773438 189.269531 140.386719 184.65625 140.386719 178.988281 C 140.386719 173.320312 135.773438 168.707031 130.105469 168.707031 C 124.441406 168.707031 119.832031 173.320312 119.832031 178.988281 Z M 119.832031 178.988281 "/><path style=" stroke:none;fill-rule:nonzero;fill:#000000;fill-opacity:1;" d="M 102.042969 181.429688 C 107.710938 181.429688 112.320312 176.816406 112.320312 171.148438 C 112.320312 165.484375 107.710938 160.875 102.042969 160.875 C 96.371094 160.875 91.761719 165.484375 91.761719 171.148438 C 91.761719 176.816406 96.371094 181.429688 102.042969 181.429688 Z M 102.042969 165.757812 C 105.019531 165.757812 107.441406 168.175781 107.441406 171.148438 C 107.441406 174.125 105.019531 176.550781 102.042969 176.550781 C 99.0625 176.550781 96.640625 174.125 96.640625 171.148438 C 96.640625 168.175781 99.0625 165.757812 102.042969 165.757812 Z M 102.042969 165.757812 "/><path style=" stroke:none;fill-rule:nonzero;fill:#000000;fill-opacity:1;" d="M 113.476562 156.824219 C 119.140625 156.824219 123.75 152.210938 123.75 146.542969 C 123.75 140.878906 119.140625 136.269531 113.476562 136.269531 C 107.804688 136.269531 103.195312 140.878906 103.195312 146.542969 C 103.195312 152.210938 107.804688 156.824219 113.476562 156.824219 Z M 113.476562 141.148438 C 116.449219 141.148438 118.867188 143.570312 118.867188 146.542969 C 118.867188 149.519531 116.449219 151.945312 113.476562 151.945312 C 110.496094 151.945312 108.074219 149.519531 108.074219 146.542969 C 108.074219 143.570312 110.496094 141.148438 113.476562 141.148438 Z M 113.476562 141.148438 "/><path style=" stroke:none;fill-rule:nonzero;fill:#000000;fill-opacity:1;" d="M 111.296875 188.109375 C 105.628906 188.109375 101.015625 192.722656 101.015625 198.390625 C 101.015625 204.058594 105.628906 208.671875 111.296875 208.671875 C 116.960938 208.671875 121.570312 204.058594 121.570312 198.390625 C 121.570312 192.722656 116.960938 188.109375 111.296875 188.109375 Z M 111.296875 203.789062 C 108.320312 203.789062 105.898438 201.367188 105.898438 198.390625 C 105.898438 195.414062 108.320312 192.992188 111.296875 192.992188 C 114.269531 192.992188 116.691406 195.414062 116.691406 198.390625 C 116.691406 201.367188 114.269531 203.789062 111.296875 203.789062 Z M 111.296875 203.789062 "/><path style=" stroke:none;fill-rule:nonzero;fill:#000000;fill-opacity:1;" d="M 83.804688 204.945312 C 89.472656 204.945312 94.085938 200.332031 94.085938 194.664062 C 94.085938 188.996094 89.472656 184.386719 83.804688 184.386719 C 78.140625 184.386719 73.53125 188.996094 73.53125 194.664062 C 73.53125 200.332031 78.140625 204.945312 83.804688 204.945312 Z M 83.804688 204.945312 "/><path style=" stroke:none;fill-rule:nonzero;fill:#000000;fill-opacity:1;" d="M 84.488281 159.898438 C 90.152344 159.898438 94.761719 155.289062 94.761719 149.625 C 94.761719 143.957031 90.152344 139.34375 84.488281 139.34375 C 78.820312 139.34375 74.207031 143.957031 74.207031 149.625 C 74.207031 155.289062 78.820312 159.898438 84.488281 159.898438 Z M 84.488281 159.898438 "/><g clip-rule="nonzero" clip-path="url(#c098d433ab)"><path style=" stroke:none;fill-rule:nonzero;fill:#000000;fill-opacity:1;" d="M 338.765625 323.929688 L 50.988281 323.929688 L 50.988281 36.148438 C 50.988281 34.800781 49.894531 33.707031 48.546875 33.707031 C 47.199219 33.707031 46.105469 34.800781 46.105469 36.148438 L 46.105469 58.289062 L 36.148438 58.289062 C 34.800781 58.289062 33.707031 59.382812 33.707031 60.730469 C 33.707031 62.078125 34.800781 63.171875 36.148438 63.171875 L 46.105469 63.171875 L 46.105469 97.277344 L 36.148438 97.277344 C 34.800781 97.277344 33.707031 98.367188 33.707031 99.714844 C 33.707031 101.0625 34.800781 102.15625 36.148438 102.15625 L 46.105469 102.15625 L 46.105469 136.269531 L 36.148438 136.269531 C 34.800781 136.269531 33.707031 137.363281 33.707031 138.710938 C 33.707031 140.058594 34.800781 141.148438 36.148438 141.148438 L 46.105469 141.148438 L 46.105469 175.253906 L 36.148438 175.253906 C 34.800781 175.253906 33.707031 176.347656 33.707031 177.695312 C 33.707031 179.042969 34.800781 180.136719 36.148438 180.136719 L 46.105469 180.136719 L 46.105469 214.242188 L 36.148438 214.242188 C 34.800781 214.242188 33.707031 215.335938 33.707031 216.683594 C 33.707031 218.03125 34.800781 219.121094 36.148438 219.121094 L 46.105469 219.121094 L 46.105469 253.230469 L 36.148438 253.230469 C 34.800781 253.230469 33.707031 254.320312 33.707031 255.667969 C 33.707031 257.015625 34.800781 258.109375 36.148438 258.109375 L 46.105469 258.109375 L 46.105469 292.222656 L 36.148438 292.222656 C 34.800781 292.222656 33.707031 293.3125 33.707031 294.660156 C 33.707031 296.007812 34.800781 297.101562 36.148438 297.101562 L 46.105469 297.101562 L 46.105469 326.371094 C 46.105469 327.71875 47.199219 328.808594 48.546875 328.808594 L 77.8125 328.808594 L 77.8125 338.765625 C 77.8125 340.113281 78.90625 341.207031 80.253906 341.207031 C 81.601562 341.207031 82.695312 340.113281 82.695312 338.765625 L 82.695312 328.808594 L 116.804688 328.808594 L 116.804688 338.765625 C 116.804688 340.113281 117.898438 341.207031 119.246094 341.207031 C 120.59375 341.207031 121.6875 340.113281 121.6875 338.765625 L 121.6875 328.808594 L 155.792969 328.808594 L 155.792969 338.765625 C 155.792969 340.113281 156.886719 341.207031 158.234375 341.207031 C 159.582031 341.207031 160.671875 340.113281 160.671875 338.765625 L 160.671875 328.808594 L 194.777344 328.808594 L 194.777344 338.765625 C 194.777344 340.113281 195.871094 341.207031 197.21875 341.207031 C 198.566406 341.207031 199.660156 340.113281 199.660156 338.765625 L 199.660156 328.808594 L 233.765625 328.808594 L 233.765625 338.765625 C 233.765625 340.113281 234.859375 341.207031 236.207031 341.207031 C 237.554688 341.207031 238.648438 340.113281 238.648438 338.765625 L 238.648438 328.808594 L 272.757812 328.808594 L 272.757812 338.765625 C 272.757812 340.113281 273.851562 341.207031 275.199219 341.207031 C 276.546875 341.207031 277.640625 340.113281 277.640625 338.765625 L 277.640625 328.808594 L 311.746094 328.808594 L 311.746094 338.765625 C 311.746094 340.113281 312.835938 341.207031 314.183594 341.207031 C 315.53125 341.207031 316.625 340.113281 316.625 338.765625 L 316.625 328.808594 L 338.765625 328.808594 C 340.113281 328.808594 341.207031 327.71875 341.207031 326.371094 C 341.207031 325.023438 340.113281 323.929688 338.765625 323.929688 Z M 338.765625 323.929688 "/></g><path style=" stroke:none;fill-rule:nonzero;fill:#000000;fill-opacity:1;" d="M 216.1875 285.441406 C 216.1875 291.113281 220.796875 295.722656 226.460938 295.722656 C 232.132812 295.722656 236.742188 291.113281 236.742188 285.441406 C 236.742188 279.773438 232.132812 275.164062 226.460938 275.164062 C 220.796875 275.164062 216.1875 279.773438 216.1875 285.441406 Z M 216.1875 285.441406 "/><path style=" stroke:none;fill-rule:nonzero;fill:#000000;fill-opacity:1;" d="M 240.445312 257.859375 C 240.445312 252.191406 235.835938 247.578125 230.167969 247.578125 C 224.5 247.578125 219.890625 252.191406 219.890625 257.859375 C 219.890625 263.527344 224.5 268.140625 230.167969 268.140625 C 235.835938 268.140625 240.445312 263.527344 240.445312 257.859375 Z M 230.167969 263.257812 C 227.191406 263.257812 224.773438 260.835938 224.773438 257.859375 C 224.773438 254.882812 227.191406 252.460938 230.167969 252.460938 C 233.144531 252.460938 235.566406 254.882812 235.566406 257.859375 C 235.566406 260.835938 233.144531 263.257812 230.167969 263.257812 Z M 230.167969 263.257812 "/><path style=" stroke:none;fill-rule:nonzero;fill:#000000;fill-opacity:1;" d="M 251.59375 264.257812 C 245.925781 264.257812 241.3125 268.871094 241.3125 274.539062 C 241.3125 280.207031 245.925781 284.816406 251.59375 284.816406 C 257.257812 284.816406 261.867188 280.207031 261.867188 274.539062 C 261.867188 268.871094 257.257812 264.257812 251.59375 264.257812 Z M 251.59375 264.257812 "/><path style=" stroke:none;fill-rule:nonzero;fill:#000000;fill-opacity:1;" d="M 249.152344 312.269531 C 254.820312 312.269531 259.433594 307.660156 259.433594 301.996094 C 259.433594 296.328125 254.820312 291.714844 249.152344 291.714844 C 243.488281 291.714844 238.878906 296.328125 238.878906 301.996094 C 238.878906 307.660156 243.488281 312.269531 249.152344 312.269531 Z M 249.152344 296.597656 C 252.128906 296.597656 254.550781 299.019531 254.550781 301.996094 C 254.550781 304.96875 252.128906 307.390625 249.152344 307.390625 C 246.179688 307.390625 243.757812 304.96875 243.757812 301.996094 C 243.757812 299.019531 246.179688 296.597656 249.152344 296.597656 Z M 249.152344 296.597656 "/><path style=" stroke:none;fill-rule:nonzero;fill:#000000;fill-opacity:1;" d="M 279.675781 289.945312 C 285.347656 289.945312 289.957031 285.335938 289.957031 279.671875 C 289.957031 274.003906 285.347656 269.390625 279.675781 269.390625 C 274.011719 269.390625 269.402344 274.003906 269.402344 279.671875 C 269.402344 285.335938 274.011719 289.945312 279.675781 289.945312 Z M 279.675781 289.945312 "/><path style=" stroke:none;fill-rule:nonzero;fill:#000000;fill-opacity:1;" d="M 284.058594 253.753906 C 284.058594 248.085938 279.445312 243.472656 273.777344 243.472656 C 268.109375 243.472656 263.496094 248.085938 263.496094 253.753906 C 263.496094 259.421875 268.109375 264.035156 273.777344 264.035156 C 279.445312 264.035156 284.058594 259.421875 284.058594 253.753906 Z M 268.378906 253.753906 C 268.378906 250.777344 270.800781 248.351562 273.777344 248.351562 C 276.753906 248.351562 279.175781 250.777344 279.175781 253.753906 C 279.175781 256.730469 276.753906 259.152344 273.777344 259.152344 C 270.800781 259.152344 268.378906 256.730469 268.378906 253.753906 Z M 268.378906 253.753906 "/><path style=" stroke:none;fill-rule:nonzero;fill:#000000;fill-opacity:1;" d="M 250.554688 250.5625 C 256.226562 250.5625 260.835938 245.949219 260.835938 240.28125 C 260.835938 234.617188 256.226562 230.007812 250.554688 230.007812 C 244.886719 230.007812 240.277344 234.617188 240.277344 240.28125 C 240.277344 245.949219 244.886719 250.5625 250.554688 250.5625 Z M 250.554688 250.5625 "/><path style=" stroke:none;fill-rule:nonzero;fill:#000000;fill-opacity:1;" d="M 224.253906 240.171875 C 229.921875 240.171875 234.535156 235.558594 234.535156 229.890625 C 234.535156 224.222656 229.921875 219.609375 224.253906 219.609375 C 218.589844 219.609375 213.980469 224.222656 213.980469 229.890625 C 213.980469 235.558594 218.589844 240.171875 224.253906 240.171875 Z M 224.253906 240.171875 "/><path style=" stroke:none;fill-rule:nonzero;fill:#000000;fill-opacity:1;" d="M 124.589844 231.3125 C 124.589844 236.980469 129.203125 241.59375 134.871094 241.59375 C 140.539062 241.59375 145.152344 236.980469 145.152344 231.3125 C 145.152344 225.644531 140.539062 221.03125 134.871094 221.03125 C 129.203125 221.03125 124.589844 225.644531 124.589844 231.3125 Z M 124.589844 231.3125 "/><path style=" stroke:none;fill-rule:nonzero;fill:#000000;fill-opacity:1;" d="M 164.015625 191.539062 C 169.683594 191.539062 174.292969 186.925781 174.292969 181.257812 C 174.292969 175.59375 169.683594 170.984375 164.015625 170.984375 C 158.347656 170.984375 153.738281 175.59375 153.738281 181.257812 C 153.738281 186.925781 158.347656 191.539062 164.015625 191.539062 Z M 164.015625 191.539062 "/><path style=" stroke:none;fill-rule:nonzero;fill:#000000;fill-opacity:1;" d="M 200.539062 128.105469 C 206.203125 128.105469 210.8125 123.492188 210.8125 117.824219 C 210.8125 112.15625 206.203125 107.542969 200.539062 107.542969 C 194.871094 107.542969 190.257812 112.15625 190.257812 117.824219 C 190.257812 123.492188 194.871094 128.105469 200.539062 128.105469 Z M 200.539062 128.105469 "/><path style=" stroke:none;fill-rule:nonzero;fill:#000000;fill-opacity:1;" d="M 229.496094 117.097656 C 235.164062 117.097656 239.777344 112.488281 239.777344 106.820312 C 239.777344 101.152344 235.164062 96.542969 229.496094 96.542969 C 223.828125 96.542969 219.21875 101.152344 219.21875 106.820312 C 219.21875 112.488281 223.828125 117.097656 229.496094 117.097656 Z M 229.496094 101.425781 C 232.472656 101.425781 234.894531 103.84375 234.894531 106.820312 C 234.894531 109.796875 232.472656 112.21875 229.496094 112.21875 C 226.519531 112.21875 224.101562 109.796875 224.101562 106.820312 C 224.101562 103.84375 226.519531 101.425781 229.496094 101.425781 Z M 229.496094 101.425781 "/><path style=" stroke:none;fill-rule:nonzero;fill:#000000;fill-opacity:1;" d="M 224.253906 150.324219 C 229.921875 150.324219 234.535156 145.714844 234.535156 140.050781 C 234.535156 134.382812 229.921875 129.769531 224.253906 129.769531 C 218.589844 129.769531 213.980469 134.382812 213.980469 140.050781 C 213.980469 145.714844 218.589844 150.324219 224.253906 150.324219 Z M 224.253906 150.324219 "/><path style=" stroke:none;fill-rule:nonzero;fill:#000000;fill-opacity:1;" d="M 250.554688 177.945312 C 256.226562 177.945312 260.835938 173.332031 260.835938 167.664062 C 260.835938 162 256.226562 157.390625 250.554688 157.390625 C 244.886719 157.390625 240.277344 162 240.277344 167.664062 C 240.277344 173.335938 244.886719 177.945312 250.554688 177.945312 Z M 250.554688 177.945312 "/><path style=" stroke:none;fill-rule:nonzero;fill:#000000;fill-opacity:1;" d="M 279.675781 140.773438 C 274.011719 140.773438 269.402344 145.382812 269.402344 151.050781 C 269.402344 156.71875 274.011719 161.328125 279.675781 161.328125 C 285.347656 161.328125 289.957031 156.71875 289.957031 151.050781 C 289.957031 145.382812 285.347656 140.773438 279.675781 140.773438 Z M 279.675781 140.773438 "/><path style=" stroke:none;fill-rule:nonzero;fill:#000000;fill-opacity:1;" d="M 254.21875 147.074219 C 259.886719 147.074219 264.496094 142.464844 264.496094 136.800781 C 264.496094 131.132812 259.886719 126.519531 254.21875 126.519531 C 248.550781 126.519531 243.941406 131.132812 243.941406 136.800781 C 243.941406 142.464844 248.550781 147.074219 254.21875 147.074219 Z M 254.21875 131.398438 C 257.195312 131.398438 259.617188 133.824219 259.617188 136.800781 C 259.617188 139.773438 257.195312 142.191406 254.21875 142.191406 C 251.242188 142.191406 248.824219 139.773438 248.824219 136.800781 C 248.824219 133.824219 251.242188 131.398438 254.21875 131.398438 Z M 254.21875 131.398438 "/><path style=" stroke:none;fill-rule:nonzero;fill:#000000;fill-opacity:1;" d="M 305.535156 150.925781 C 299.871094 150.925781 295.261719 155.535156 295.261719 161.203125 C 295.261719 166.871094 299.871094 171.480469 305.535156 171.480469 C 311.203125 171.480469 315.816406 166.871094 315.816406 161.203125 C 315.816406 155.535156 311.203125 150.925781 305.535156 150.925781 Z M 305.535156 150.925781 "/><path style=" stroke:none;fill-rule:nonzero;fill:#000000;fill-opacity:1;" d="M 276.445312 125.828125 C 282.113281 125.828125 286.726562 121.21875 286.726562 115.546875 C 286.726562 109.878906 282.113281 105.269531 276.445312 105.269531 C 270.773438 105.269531 266.164062 109.878906 266.164062 115.550781 C 266.164062 121.21875 270.773438 125.828125 276.445312 125.828125 Z M 276.445312 125.828125 "/><path style=" stroke:none;fill-rule:nonzero;fill:#000000;fill-opacity:1;" d="M 293.222656 133.5 C 293.222656 139.167969 297.835938 143.78125 303.503906 143.78125 C 309.167969 143.78125 313.777344 139.167969 313.777344 133.5 C 313.777344 127.832031 309.167969 123.222656 303.503906 123.222656 C 297.832031 123.222656 293.222656 127.832031 293.222656 133.5 Z M 303.503906 128.105469 C 306.476562 128.105469 308.894531 130.523438 308.894531 133.5 C 308.894531 136.476562 306.476562 138.898438 303.503906 138.898438 C 300.523438 138.898438 298.101562 136.476562 298.101562 133.5 C 298.101562 130.523438 300.523438 128.105469 303.503906 128.105469 Z M 303.503906 128.105469 "/><path style=" stroke:none;fill-rule:nonzero;fill:#000000;fill-opacity:1;" d="M 287.515625 98.421875 C 293.1875 98.421875 297.796875 93.8125 297.796875 88.148438 C 297.796875 82.480469 293.1875 77.867188 287.515625 77.867188 C 281.847656 77.867188 277.238281 82.480469 277.238281 88.148438 C 277.238281 93.8125 281.847656 98.421875 287.515625 98.421875 Z M 287.515625 98.421875 "/><path style=" stroke:none;fill-rule:nonzero;fill:#000000;fill-opacity:1;" d="M 255.945312 98.421875 C 261.613281 98.421875 266.222656 93.8125 266.222656 88.148438 C 266.222656 82.480469 261.613281 77.867188 255.945312 77.867188 C 250.277344 77.867188 245.667969 82.480469 245.667969 88.148438 C 245.667969 93.8125 250.277344 98.421875 255.945312 98.421875 Z M 255.945312 98.421875 "/><path style=" stroke:none;fill-rule:nonzero;fill:#000000;fill-opacity:1;" d="M 140.746094 161.328125 C 146.414062 161.328125 151.023438 156.71875 151.023438 151.050781 C 151.023438 145.382812 146.414062 140.773438 140.746094 140.773438 C 135.078125 140.773438 130.464844 145.382812 130.464844 151.050781 C 130.464844 156.71875 135.078125 161.328125 140.746094 161.328125 Z M 140.746094 161.328125 "/><path style=" stroke:none;fill-rule:nonzero;fill:#000000;fill-opacity:1;" d="M 119.832031 178.988281 C 119.832031 184.65625 124.441406 189.269531 130.105469 189.269531 C 135.773438 189.269531 140.386719 184.65625 140.386719 178.988281 C 140.386719 173.320312 135.773438 168.707031 130.105469 168.707031 C 124.441406 168.707031 119.832031 173.320312 119.832031 178.988281 Z M 119.832031 178.988281 "/><path style=" stroke:none;fill-rule:nonzero;fill:#000000;fill-opacity:1;" d="M 102.042969 181.429688 C 107.710938 181.429688 112.320312 176.816406 112.320312 171.148438 C 112.320312 165.484375 107.710938 160.875 102.042969 160.875 C 96.371094 160.875 91.761719 165.484375 91.761719 171.148438 C 91.761719 176.816406 96.371094 181.429688 102.042969 181.429688 Z M 102.042969 165.757812 C 105.019531 165.757812 107.441406 168.175781 107.441406 171.148438 C 107.441406 174.125 105.019531 176.550781 102.042969 176.550781 C 99.0625 176.550781 96.640625 174.125 96.640625 171.148438 C 96.640625 168.175781 99.0625 165.757812 102.042969 165.757812 Z M 102.042969 165.757812 "/><path style=" stroke:none;fill-rule:nonzero;fill:#000000;fill-opacity:1;" d="M 113.476562 156.824219 C 119.140625 156.824219 123.75 152.210938 123.75 146.542969 C 123.75 140.878906 119.140625 136.269531 113.476562 136.269531 C 107.804688 136.269531 103.195312 140.878906 103.195312 146.542969 C 103.195312 152.210938 107.804688 156.824219 113.476562 156.824219 Z M 113.476562 141.148438 C 116.449219 141.148438 118.867188 143.570312 118.867188 146.542969 C 118.867188 149.519531 116.449219 151.945312 113.476562 151.945312 C 110.496094 151.945312 108.074219 149.519531 108.074219 146.542969 C 108.074219 143.570312 110.496094 141.148438 113.476562 141.148438 Z M 113.476562 141.148438 "/><path style=" stroke:none;fill-rule:nonzero;fill:#000000;fill-opacity:1;" d="M 111.296875 188.109375 C 105.628906 188.109375 101.015625 192.722656 101.015625 198.390625 C 101.015625 204.058594 105.628906 208.671875 111.296875 208.671875 C 116.960938 208.671875 121.570312 204.058594 121.570312 198.390625 C 121.570312 192.722656 116.960938 188.109375 111.296875 188.109375 Z M 111.296875 203.789062 C 108.320312 203.789062 105.898438 201.367188 105.898438 198.390625 C 105.898438 195.414062 108.320312 192.992188 111.296875 192.992188 C 114.269531 192.992188 116.691406 195.414062 116.691406 198.390625 C 116.691406 201.367188 114.269531 203.789062 111.296875 203.789062 Z M 111.296875 203.789062 "/><path style=" stroke:none;fill-rule:nonzero;fill:#000000;fill-opacity:1;" d="M 83.804688 204.945312 C 89.472656 204.945312 94.085938 200.332031 94.085938 194.664062 C 94.085938 188.996094 89.472656 184.386719 83.804688 184.386719 C 78.140625 184.386719 73.53125 188.996094 73.53125 194.664062 C 73.53125 200.332031 78.140625 204.945312 83.804688 204.945312 Z M 83.804688 204.945312 "/><path style=" stroke:none;fill-rule:nonzero;fill:#000000;fill-opacity:1;" d="M 84.488281 159.898438 C 90.152344 159.898438 94.761719 155.289062 94.761719 149.625 C 94.761719 143.957031 90.152344 139.34375 84.488281 139.34375 C 78.820312 139.34375 74.207031 143.957031 74.207031 149.625 C 74.207031 155.289062 78.820312 159.898438 84.488281 159.898438 Z M 84.488281 159.898438 "/></g></svg>