<svg xmlns="http://www.w3.org/2000/svg" xmlns:xlink="http://www.w3.org/1999/xlink" width="500" zoomAndPan="magnify" viewBox="0 0 375 374.999991" height="500" preserveAspectRatio="xMidYMid meet" version="1.2"><defs><clipPath id="2a46d6b17e"><path d="M 37.5 63 L 337.5 63 L 337.5 312 L 37.5 312 Z M 37.5 63 "/></clipPath></defs><g id="49341e2260"><rect x="0" width="375" y="0" height="374.999991" style="fill:#ffffff;fill-opacity:1;stroke:none;"/><rect x="0" width="375" y="0" height="374.999991" style="fill:#b64e0d;fill-opacity:1;stroke:none;"/><g clip-rule="nonzero" clip-path="url(#2a46d6b17e)"><path style=" stroke:none;fill-rule:nonzero;fill:#000000;fill-opacity:1;" d="M 316.894531 293.78125 L 337.027344 94.707031 L 316.421875 92.640625 L 318.554688 71.492188 L 235.863281 63.121094 L 233.726562 84.269531 L 212.070312 82.101562 L 190.6875 293.78125 L 162.351562 293.78125 L 165.132812 293.511719 L 146.222656 217.765625 L 160.488281 214.207031 L 124.597656 201.226562 L 88.675781 188.246094 L 63.085938 216.542969 L 61.765625 218.035156 L 58.75 205.96875 L 43.871094 209.664062 L 49.363281 231.695312 L 37.5 244.875 L 51.769531 241.316406 L 64.851562 293.78125 L 56.714844 293.78125 L 56.714844 311.878906 L 252.46875 311.878906 L 252.46875 267.820312 L 257.789062 245.519531 L 257.789062 208.816406 L 264.703125 180.078125 L 257.789062 148.152344 L 271.617188 108.773438 L 263.617188 146.019531 L 271.617188 175.46875 L 262.027344 213.597656 L 263.617188 245.519531 L 262.027344 267.820312 L 262.027344 311.878906 L 337.5 311.878906 L 337.5 293.78125 Z M 124.835938 310.761719 L 124.597656 297.339844 L 124.53125 293.746094 L 124.464844 290.085938 L 109.449219 280.800781 L 105.113281 250.570312 L 92.742188 233.863281 C 92.539062 233.625 92.4375 233.285156 92.4375 232.980469 L 92.265625 213.628906 L 96.570312 233.761719 L 109.6875 248.433594 L 115.175781 275.851562 L 132.222656 286.867188 L 135.140625 293.78125 L 136.191406 296.253906 L 142.289062 310.761719 Z M 124.835938 310.761719 "/></g><path style=" stroke:none;fill-rule:nonzero;fill:#ffffff;fill-opacity:1;" d="M 71.257812 256.175781 L 92.074219 250.984375 L 98.46875 276.636719 L 77.652344 281.824219 Z M 71.257812 256.175781 "/><path style=" stroke:none;fill-rule:nonzero;fill:#ffffff;fill-opacity:1;" d="M 114.402344 245.429688 L 135.21875 240.238281 L 141.613281 265.886719 L 120.796875 271.078125 Z M 114.402344 245.429688 "/><path style=" stroke:none;fill-rule:nonzero;fill:#ffffff;fill-opacity:1;" d="M 223.582031 136.238281 L 226.417969 108.183594 L 254.472656 111.023438 L 251.636719 139.078125 Z M 223.582031 136.238281 "/><path style=" stroke:none;fill-rule:nonzero;fill:#ffffff;fill-opacity:1;" d="M 279.738281 141.890625 L 282.574219 113.835938 L 310.628906 116.671875 L 307.792969 144.726562 Z M 279.738281 141.890625 "/><path style=" stroke:none;fill-rule:nonzero;fill:#ffffff;fill-opacity:1;" d="M 218.925781 182.398438 L 221.761719 154.347656 L 249.816406 157.183594 L 246.980469 185.238281 Z M 218.925781 182.398438 "/><path style=" stroke:none;fill-rule:nonzero;fill:#ffffff;fill-opacity:1;" d="M 275.046875 188.082031 L 277.882812 160.027344 L 305.9375 162.863281 L 303.097656 190.917969 Z M 275.046875 188.082031 "/><path style=" stroke:none;fill-rule:nonzero;fill:#ffffff;fill-opacity:1;" d="M 214.265625 228.59375 L 217.101562 200.542969 L 245.15625 203.378906 L 242.320312 231.433594 Z M 214.265625 228.59375 "/><path style=" stroke:none;fill-rule:nonzero;fill:#ffffff;fill-opacity:1;" d="M 270.386719 234.277344 L 273.222656 206.222656 L 301.277344 209.058594 L 298.441406 237.113281 Z M 270.386719 234.277344 "/><path style=" stroke:none;fill-rule:nonzero;fill:#ffffff;fill-opacity:1;" d="M 209.574219 274.785156 L 212.410156 246.730469 L 240.464844 249.570312 L 237.625 277.621094 Z M 209.574219 274.785156 "/><path style=" stroke:none;fill-rule:nonzero;fill:#ffffff;fill-opacity:1;" d="M 265.730469 280.4375 L 268.566406 252.382812 L 296.621094 255.222656 L 293.785156 283.273438 Z M 265.730469 280.4375 "/></g></svg>