<svg xmlns="http://www.w3.org/2000/svg" xmlns:xlink="http://www.w3.org/1999/xlink" width="500" zoomAndPan="magnify" viewBox="0 0 375 374.999991" height="500" preserveAspectRatio="xMidYMid meet" version="1.2"><defs><clipPath id="b2a1aa4032"><path d="M 96 287 L 279 287 L 279 320.582031 L 96 320.582031 Z M 96 287 "/></clipPath></defs><g id="22c6c27ca6"><rect x="0" width="375" y="0" height="374.999991" style="fill:#ffffff;fill-opacity:1;stroke:none;"/><rect x="0" width="375" y="0" height="374.999991" style="fill:#1883d0;fill-opacity:1;stroke:none;"/><path style=" stroke:none;fill-rule:nonzero;fill:#000000;fill-opacity:1;" d="M 187.367188 106.851562 L 92.46875 201.894531 L 88.585938 205.78125 C 88.5 205.867188 88.425781 205.941406 88.339844 206.027344 L 88.339844 230.492188 C 94.695312 231.980469 100.484375 235.449219 105.105469 240.664062 C 108.242188 244.21875 112.371094 245.953125 116.503906 245.953125 L 116.75 245.953125 C 120.878906 245.953125 125.09375 244.21875 128.144531 240.664062 C 134.5 233.554688 142.933594 229.667969 152.015625 229.667969 C 161.101562 229.667969 169.605469 233.554688 175.886719 240.664062 C 178.777344 243.972656 182.492188 245.792969 186.460938 246.039062 L 188.4375 246.039062 C 192.324219 245.792969 196.035156 243.972656 198.925781 240.664062 C 205.28125 233.554688 213.789062 229.667969 222.796875 229.667969 C 222.882812 229.667969 222.882812 229.667969 222.882812 229.667969 C 231.882812 229.667969 240.386719 233.554688 246.753906 240.664062 C 249.8125 244.132812 253.6875 246.039062 257.902344 246.113281 L 258.566406 246.113281 C 262.695312 246.027344 266.65625 244.132812 269.714844 240.664062 C 274.421875 235.460938 280.203125 231.980469 286.566406 230.492188 L 286.566406 206.199219 C 286.40625 206.035156 286.320312 205.953125 286.152344 205.78125 L 282.4375 202.066406 Z M 187.367188 106.851562 "/><path style=" stroke:none;fill-rule:nonzero;fill:#000000;fill-opacity:1;" d="M 317.527344 257.1875 C 311.167969 250.078125 302.738281 246.191406 293.652344 246.191406 C 284.570312 246.191406 276.0625 250.078125 269.699219 257.1875 C 266.648438 260.742188 262.515625 262.722656 258.21875 262.722656 C 253.925781 262.722656 249.871094 260.742188 246.734375 257.1875 C 240.378906 250.078125 231.871094 246.191406 222.863281 246.191406 C 222.863281 246.191406 222.863281 246.191406 222.78125 246.191406 C 213.78125 246.191406 205.273438 250.078125 198.910156 257.1875 C 195.773438 260.742188 191.71875 262.722656 187.429688 262.722656 C 183.136719 262.722656 179.007812 260.742188 175.863281 257.1875 C 169.582031 250.078125 161.074219 246.191406 151.992188 246.191406 C 142.90625 246.191406 134.484375 250.078125 128.121094 257.1875 C 121.839844 264.296875 111.351562 264.296875 105.074219 257.1875 C 98.792969 250.078125 90.285156 246.191406 81.203125 246.191406 C 72.117188 246.191406 63.695312 250.078125 57.332031 257.1875 C 54.269531 260.570312 54.601562 265.859375 58.078125 268.835938 C 61.460938 271.898438 66.667969 271.566406 69.71875 268.171875 C 76 261.0625 86.488281 261.0625 92.765625 268.171875 C 99.074219 275.28125 107.578125 279.253906 116.664062 279.253906 C 125.75 279.253906 134.171875 275.289062 140.535156 268.179688 C 146.816406 261.074219 157.300781 261.074219 163.582031 268.179688 C 169.863281 275.289062 178.367188 279.253906 187.453125 279.253906 C 196.539062 279.253906 205.042969 275.289062 211.324219 268.179688 C 217.605469 261.074219 228.089844 261.074219 234.371094 268.179688 C 240.652344 275.289062 249.15625 279.253906 258.242188 279.253906 C 267.328125 279.253906 275.832031 275.289062 282.113281 268.179688 C 285.257812 264.625 289.378906 262.730469 293.679688 262.730469 C 297.972656 262.730469 302.023438 264.636719 305.160156 268.179688 C 308.21875 271.566406 313.421875 271.898438 316.804688 268.84375 C 320.253906 265.859375 320.5 260.65625 317.527344 257.1875 Z M 317.527344 257.1875 "/><g clip-rule="nonzero" clip-path="url(#b2a1aa4032)"><path style=" stroke:none;fill-rule:nonzero;fill:#000000;fill-opacity:1;" d="M 264.667969 298.503906 C 261.777344 302.058594 257.894531 304.042969 253.847656 304.042969 C 249.878906 304.042969 246.003906 302.058594 243.117188 298.503906 C 237.167969 291.394531 229.164062 287.433594 220.648438 287.433594 C 212.140625 287.519531 204.210938 291.40625 198.261719 298.503906 C 195.289062 302.058594 191.488281 304.042969 187.445312 304.042969 C 183.398438 304.042969 179.601562 302.058594 176.625 298.503906 C 170.679688 291.394531 162.75 287.433594 154.242188 287.433594 C 145.652344 287.433594 137.722656 291.40625 131.773438 298.503906 C 125.910156 305.613281 116.085938 305.613281 110.136719 298.503906 C 107.332031 295.113281 102.457031 294.789062 99.234375 297.84375 C 96.015625 300.820312 95.765625 306.109375 98.570312 309.492188 C 104.105469 316.109375 111.371094 319.984375 119.222656 320.488281 C 119.46875 320.574219 119.714844 320.574219 120.046875 320.488281 C 120.378906 320.574219 120.625 320.574219 120.957031 320.574219 C 121.289062 320.574219 121.535156 320.574219 121.863281 320.488281 C 122.28125 320.574219 122.605469 320.488281 122.9375 320.488281 C 130.703125 319.910156 137.96875 316.023438 143.417969 309.492188 C 149.28125 302.382812 159.113281 302.382812 165.050781 309.492188 C 170.5 316.109375 177.859375 319.910156 185.703125 320.402344 C 185.863281 320.488281 186.035156 320.488281 186.28125 320.488281 L 186.527344 320.488281 C 186.859375 320.574219 187.105469 320.574219 187.4375 320.574219 C 187.769531 320.574219 188.015625 320.574219 188.347656 320.488281 C 188.753906 320.574219 189.085938 320.488281 189.417969 320.402344 C 197.183594 319.824219 204.363281 316.023438 209.8125 309.492188 C 215.761719 302.382812 225.585938 302.382812 231.449219 309.492188 C 236.980469 316.109375 244.246094 319.910156 252.097656 320.402344 C 252.269531 320.488281 252.429688 320.488281 252.675781 320.488281 L 252.921875 320.488281 C 253.253906 320.574219 253.5 320.574219 253.832031 320.574219 C 254.164062 320.574219 254.410156 320.574219 254.742188 320.488281 C 255.074219 320.574219 255.480469 320.488281 255.8125 320.488281 C 263.65625 319.910156 270.84375 316.023438 276.292969 309.492188 C 279.105469 306.109375 278.851562 300.820312 275.628906 297.84375 C 272.433594 294.789062 267.554688 295.121094 264.667969 298.503906 Z M 264.667969 298.503906 "/></g><path style=" stroke:none;fill-rule:nonzero;fill:#000000;fill-opacity:1;" d="M 133.761719 91.152344 L 137.890625 87.019531 L 137.890625 80.90625 C 137.890625 76.363281 134.179688 72.640625 129.632812 72.640625 L 113.113281 72.640625 C 108.566406 72.640625 104.851562 76.355469 104.851562 80.90625 L 104.851562 120.15625 L 108.980469 116.023438 Z M 133.761719 91.152344 "/><path style=" stroke:none;fill-rule:nonzero;fill:#000000;fill-opacity:1;" d="M 82.722656 199.914062 L 92.46875 190.160156 L 187.367188 95.199219 L 282.429688 190.40625 L 290.6875 198.671875 L 291.929688 199.914062 C 298.285156 206.199219 308.527344 206.199219 314.804688 199.914062 C 321.164062 193.554688 321.164062 183.304688 314.804688 177.023438 L 201.816406 63.871094 C 201.074219 62.628906 200.242188 61.398438 199.171875 60.316406 C 194.378906 55.523438 187.273438 54.363281 181.335938 56.925781 C 179.269531 57.75 177.367188 58.90625 175.632812 60.5625 C 175.054688 61.226562 174.476562 61.96875 173.984375 62.628906 L 142.023438 94.613281 L 104.9375 131.730469 L 101.632812 135.039062 L 59.761719 176.9375 C 53.480469 183.296875 53.480469 193.542969 59.761719 199.914062 C 66.117188 206.191406 76.359375 206.191406 82.722656 199.914062 Z M 82.722656 199.914062 "/></g></svg>