<svg xmlns="http://www.w3.org/2000/svg" xmlns:xlink="http://www.w3.org/1999/xlink" width="500" zoomAndPan="magnify" viewBox="0 0 375 374.999991" height="500" preserveAspectRatio="xMidYMid meet" version="1.2"><defs><clipPath id="3060860d42"><path d="M 59 59 L 330.222656 59 L 330.222656 330.222656 L 59 330.222656 Z M 59 59 "/></clipPath><clipPath id="c83314bf5e"><path d="M 44.472656 44.472656 L 237 44.472656 L 237 330.222656 L 44.472656 330.222656 Z M 44.472656 44.472656 "/></clipPath></defs><g id="07c94464bd"><rect x="0" width="375" y="0" height="374.999991" style="fill:#ffffff;fill-opacity:1;stroke:none;"/><rect x="0" width="375" y="0" height="374.999991" style="fill:#c38811;fill-opacity:1;stroke:none;"/><g clip-rule="nonzero" clip-path="url(#3060860d42)"><path style=" stroke:none;fill-rule:nonzero;fill:#000000;fill-opacity:1;" d="M 191.511719 165.914062 L 123.648438 129.003906 L 59.355469 59.949219 L 120.074219 179.605469 L 186.15625 217.113281 L 207.585938 285.574219 L 244.496094 330.222656 L 330.222656 330.222656 L 265.332031 238.542969 Z M 191.511719 165.914062 "/></g><g clip-rule="nonzero" clip-path="url(#c83314bf5e)"><path style=" stroke:none;fill-rule:nonzero;fill:#000000;fill-opacity:1;" d="M 181.394531 221.277344 L 115.910156 183.773438 L 44.472656 44.472656 L 44.472656 330.222656 L 236.757812 330.222656 L 202.230469 287.953125 Z M 181.394531 221.277344 "/></g><path style=" stroke:none;fill-rule:nonzero;fill:#000000;fill-opacity:1;" d="M 255.808594 189.726562 C 268.308594 199.253906 270.691406 204.015625 276.644531 203.417969 C 301.050781 200.441406 301.050781 201.039062 304.027344 199.253906 C 314.148438 193.300781 316.527344 192.703125 318.910156 189.132812 L 326.054688 176.035156 C 329.03125 171.273438 325.457031 167.105469 324.863281 162.9375 C 317.71875 141.507812 317.71875 140.316406 314.148438 137.933594 C 299.265625 128.410156 299.859375 127.816406 296.882812 127.21875 C 293.90625 126.027344 276.644531 129.003906 276.046875 129.003906 C 256.996094 136.746094 252.832031 133.769531 249.855469 143.886719 C 249.855469 144.484375 245.6875 166.511719 245.6875 164.722656 C 253.425781 184.964844 252.832031 186.75 255.808594 189.726562 Z M 255.808594 189.726562 "/><path style=" stroke:none;fill-rule:nonzero;fill:#000000;fill-opacity:1;" d="M 187.347656 149.839844 C 187.941406 149.839844 204.609375 154.007812 204.015625 153.414062 C 205.207031 153.414062 215.921875 152.816406 218.300781 150.4375 C 218.898438 149.839844 226.636719 142.699219 226.042969 143.292969 C 227.230469 142.101562 227.230469 140.910156 227.828125 140.316406 C 228.421875 139.125 229.019531 118.886719 228.421875 117.695312 C 223.660156 109.957031 227.230469 115.3125 220.089844 105.789062 C 218.898438 104.597656 217.707031 104.003906 216.515625 103.40625 C 205.207031 101.027344 205.800781 101.027344 204.609375 101.027344 C 192.703125 101.621094 187.347656 98.644531 184.371094 104.003906 C 183.773438 104.597656 175.441406 118.886719 176.035156 117.695312 C 176.035156 139.125 175.441406 133.171875 178.417969 139.125 C 183.773438 146.863281 183.179688 147.460938 187.347656 149.839844 Z M 187.347656 149.839844 "/><path style=" stroke:none;fill-rule:nonzero;fill:#000000;fill-opacity:1;" d="M 220.683594 160.558594 C 218.898438 161.152344 218.898438 162.9375 218.898438 164.128906 C 218.898438 164.722656 218.300781 167.105469 218.300781 167.699219 C 220.683594 174.25 220.089844 173.058594 220.683594 173.652344 C 226.042969 178.417969 223.660156 177.226562 231.398438 176.628906 C 231.996094 176.628906 232.589844 176.628906 233.183594 176.035156 C 235.566406 174.25 236.160156 174.25 236.757812 173.652344 C 239.734375 167.699219 239.136719 170.675781 236.160156 161.746094 C 235.566406 160.558594 234.972656 160.558594 231.398438 158.175781 C 229.613281 156.984375 221.875 159.960938 220.683594 160.558594 Z M 220.683594 160.558594 "/><path style=" stroke:none;fill-rule:nonzero;fill:#000000;fill-opacity:1;" d="M 285.574219 245.089844 L 286.167969 245.6875 C 292.121094 249.855469 289.738281 249.257812 296.882812 248.066406 C 305.21875 246.28125 302.835938 247.472656 307.003906 242.710938 C 309.980469 238.542969 309.386719 242.113281 309.386719 232.589844 C 309.386719 231.996094 309.386719 231.996094 307.597656 224.253906 C 307.003906 221.277344 304.027344 221.875 298.074219 219.492188 L 297.480469 219.492188 C 283.785156 223.066406 291.527344 219.492188 283.191406 227.230469 C 281.40625 229.019531 282.597656 230.804688 282 234.375 C 282 234.375 280.808594 239.734375 285.574219 245.089844 Z M 285.574219 245.089844 "/></g></svg>